<svg width="4171" height="4017" viewBox="0 0 4171 4017" fill="none" xmlns="http://www.w3.org/2000/svg">
<path d="M2122.37 1578.98C2120.55 1575.61 2117.78 1572.85 2114.4 1571.03C2111.02 1569.21 2107.19 1568.42 2103.36 1568.76C2099.24 1568.74 2095.24 1570.21 2092.1 1572.88C2088.96 1575.55 2086.88 1579.25 2086.24 1583.32C2082.3 1584.55 2086.24 1611.3 2086.24 1611.3C2087.54 1613.86 2089.08 1616.3 2090.83 1618.58C2093.04 1621.35 2095.97 1623.48 2099.3 1624.72C2102.63 1625.97 2106.24 1626.29 2109.73 1625.65C2113.23 1625.01 2116.49 1623.44 2119.16 1621.1C2121.83 1618.76 2123.82 1615.74 2124.91 1612.36C2127.48 1607.07 2128.6 1601.19 2128.15 1595.33C2127.71 1589.47 2125.71 1583.83 2122.37 1578.98V1578.98ZM2093.53 1600.74C2092.53 1599.62 2091.3 1598.73 2089.92 1598.13L2089.51 1597.47C2088.2 1595.18 2088.69 1592.24 2086.65 1590.27L2089.35 1583.07C2091.32 1582.17 2093.28 1580.54 2095.25 1580.54C2097.22 1580.54 2100 1583.07 2101.07 1585.85C2104.02 1593.87 2102.54 1596.82 2093.69 1600.83L2093.53 1600.74ZM2110.74 1612.69C2109.41 1612.76 2108.1 1612.37 2107.04 1611.58C2105.98 1610.78 2105.23 1609.64 2104.92 1608.35C2104.76 1607.53 2104.76 1606.68 2104.93 1605.86C2105.1 1605.04 2105.44 1604.26 2105.93 1603.57C2106.41 1602.88 2107.02 1602.3 2107.74 1601.86C2108.45 1601.41 2109.25 1601.12 2110.08 1600.99C2110.93 1600.93 2111.78 1601.05 2112.58 1601.32C2113.38 1601.6 2114.12 1602.03 2114.75 1602.59C2115.39 1603.16 2115.9 1603.84 2116.27 1604.61C2116.63 1605.37 2116.84 1606.2 2116.88 1607.04C2116.71 1608.55 2116.02 1609.94 2114.93 1610.99C2113.84 1612.03 2112.41 1612.67 2110.9 1612.77L2110.74 1612.69Z" fill="black"/>
<path d="M2008.31 1584.63C2006.66 1582.2 2004.43 1580.21 2001.83 1578.83C1999.24 1577.46 1996.34 1576.74 1993.4 1576.74C1990.45 1576.74 1987.56 1577.46 1984.96 1578.83C1982.36 1580.21 1980.13 1582.2 1978.48 1584.63C1973.27 1591.79 1970.52 1600.44 1970.66 1609.29C1970.79 1618.15 1973.79 1626.72 1979.22 1633.72C1980.99 1636.05 1983.29 1637.92 1985.94 1639.18C1988.59 1640.43 1991.5 1641.03 1994.43 1640.92C1997.36 1640.8 2000.22 1639.99 2002.77 1638.53C2005.31 1637.08 2007.47 1635.03 2009.05 1632.57C2013.98 1625.97 2016.52 1617.89 2016.26 1609.66C2016.36 1600.68 2013.57 1591.91 2008.31 1584.63V1584.63ZM1985.69 1611.71C1982.25 1612.69 1978.24 1609.34 1977.5 1604.92C1977.25 1603.26 1977.25 1601.58 1977.5 1599.93C1977.68 1598.49 1978.3 1597.15 1979.29 1596.1C1980.28 1595.04 1981.57 1594.32 1982.99 1594.04C1984.4 1593.77 1985.85 1593.98 1987.13 1594.64C1988.4 1595.29 1989.43 1596.34 1990.04 1597.64C1990.77 1599.32 1991.35 1601.08 1991.76 1602.87C1991.27 1607.62 1989.38 1610.32 1985.69 1611.71ZM2002.08 1624.72C1998.72 1624.72 1995.04 1620.71 1996.02 1617.68C1996.3 1616.27 1997.04 1615 1998.12 1614.05C1999.2 1613.11 2000.57 1612.54 2002 1612.44C2005.61 1612.44 2009.21 1616.45 2008.31 1619.56C2007.97 1620.94 2007.18 1622.17 2006.07 1623.06C2004.96 1623.94 2003.59 1624.44 2002.16 1624.47L2002.08 1624.72Z" fill="#080707"/>
<path d="M2841.69 1742.61C2835.15 1738.76 2828.39 1735.29 2821.45 1732.22C2786.13 1717.9 2751.88 1701.29 2717.13 1685.83C2692.52 1674.84 2668.63 1662.33 2645.59 1648.36C2623.97 1635.29 2604.09 1619.54 2586.43 1601.48C2569.63 1584.3 2554.47 1565.65 2539.15 1547.08C2533.28 1539.78 2526.75 1533.04 2519.64 1526.95C2510.25 1518.84 2498.5 1513.97 2486.13 1513.04C2482.01 1512.91 2477.92 1512.36 2473.92 1511.4C2462.53 1508.46 2459.25 1504.7 2459.25 1493C2459.07 1472.42 2462.85 1452.01 2470.39 1432.86C2484.64 1396.83 2505.48 1363.76 2531.85 1335.34C2537.78 1328.78 2544.76 1323.25 2552.5 1318.98C2557.41 1316.33 2562.92 1314.98 2568.5 1315.05C2574.07 1315.11 2579.54 1316.6 2584.39 1319.37C2589.23 1322.14 2593.28 1326.1 2596.16 1330.87C2599.04 1335.64 2600.66 1341.07 2600.85 1346.63C2600.85 1353.1 2600.85 1359.56 2600.85 1366.02C2600.71 1369.55 2601.72 1373.02 2603.72 1375.92C2604.46 1377.19 2605.61 1378.18 2606.97 1378.72C2608.33 1379.27 2609.84 1379.35 2611.26 1378.95C2612.39 1378.63 2613.37 1377.92 2614.03 1376.95C2614.69 1375.97 2614.99 1374.8 2614.86 1373.63C2614.86 1364.88 2614.37 1356.04 2614.86 1347.29C2615.23 1341.04 2614.07 1334.8 2611.49 1329.1C2608.91 1323.4 2604.97 1318.41 2600.03 1314.56C2585.77 1302.7 2569.96 1296.32 2551.36 1304.26C2549.47 1305.02 2547.42 1305.26 2545.41 1304.94C2543.4 1304.62 2541.52 1303.76 2539.97 1302.46C2499.98 1275.95 2469.66 1242.49 2460.15 1193.64C2458.86 1187.35 2456.91 1181.21 2454.33 1175.32C2451.12 1167.37 2445.03 1160.91 2437.28 1157.23C2429.52 1153.55 2420.66 1152.91 2412.46 1155.44C2408.01 1156.92 2403.43 1157.96 2398.77 1158.55C2395.89 1159.23 2392.86 1158.98 2390.13 1157.81C2387.4 1156.65 2385.11 1154.64 2383.61 1152.08L2380.83 1147.58C2377.8 1142.49 2373.16 1138.56 2367.63 1136.41C2362.11 1134.26 2356.02 1134.02 2350.34 1135.72C2346.93 1136.49 2343.56 1137.48 2340.27 1138.67C2336.76 1140.18 2332.94 1140.83 2329.14 1140.56C2325.33 1140.29 2321.64 1139.11 2318.39 1137.11C2312.76 1133.84 2306.24 1132.39 2299.75 1132.98C2293.26 1133.56 2287.12 1136.15 2282.17 1140.38C2277.44 1143.84 2273 1147.67 2268.89 1151.84C2266.57 1154.51 2263.57 1156.51 2260.22 1157.63C2256.86 1158.75 2253.26 1158.95 2249.8 1158.22C2241 1156.87 2232.02 1158.95 2224.72 1164.03C2214.68 1170.08 2205.47 1177.42 2197.35 1185.87C2192.76 1190.29 2189.16 1196.92 2183.42 1198.64C2177.1 1199.12 2170.74 1198.31 2164.74 1196.26C2164.28 1194.52 2163.95 1192.74 2163.76 1190.94C2163.76 1188.57 2163.76 1186.2 2163.76 1183.91C2162.42 1170.44 2158.04 1157.44 2150.94 1145.91C2143.85 1134.37 2134.22 1124.59 2122.78 1117.31C2119.14 1114.27 2114.5 1112.67 2109.75 1112.81C2108.57 1112.94 2107.45 1113.4 2106.52 1114.14C2105.59 1114.87 2104.89 1115.86 2104.51 1116.99C2104.02 1118.06 2103.94 1119.28 2104.28 1120.41C2104.63 1121.54 2105.38 1122.51 2106.39 1123.12C2108.36 1124.27 2110.9 1124.59 2112.79 1125.9C2124.05 1132.32 2133.43 1141.59 2139.96 1152.78C2146.49 1163.97 2149.95 1176.68 2149.99 1189.64C2150.37 1195.28 2148.7 1200.87 2145.28 1205.37C2141.86 1209.88 2136.93 1213.01 2131.39 1214.18C2123.46 1216.88 2114.8 1216.46 2107.19 1212.99C2099.57 1209.52 2093.57 1203.27 2090.42 1195.53C2085.21 1183.77 2080.62 1171.76 2076.65 1159.53C2075.17 1155.52 2077.88 1152.98 2080.99 1150.94C2084.11 1148.89 2090.17 1149.63 2094.76 1148.81C2097.71 1148.24 2100.41 1146.6 2100.08 1143.08C2099.93 1141.62 2099.29 1140.26 2098.27 1139.2C2097.24 1138.15 2095.89 1137.47 2094.43 1137.28C2091.05 1136.25 2087.48 1136 2083.98 1136.56C2080.49 1137.11 2077.17 1138.45 2074.27 1140.47C2072.28 1142.07 2069.82 1142.99 2067.27 1143.08C2064.71 1143.16 2062.19 1142.42 2060.1 1140.96C2049.47 1135.94 2037.81 1133.5 2026.06 1133.84C2014.31 1134.18 2002.8 1137.29 1992.49 1142.92C1988.37 1144.96 1983.81 1145.91 1979.22 1145.7C1956.8 1146.04 1934.62 1150.28 1913.66 1158.22C1908.39 1160.62 1902.44 1161.08 1896.86 1159.53C1890.13 1157.26 1882.9 1156.89 1875.96 1158.47C1861.47 1161.05 1847.58 1166.29 1834.99 1173.93C1805.82 1193.64 1784.02 1218.68 1777.22 1254.43C1776.48 1257.87 1775.66 1261.3 1774.84 1264.74C1768.93 1286.24 1766.17 1308.48 1766.65 1330.76C1767.66 1351.81 1770.4 1372.75 1774.84 1393.35C1779.24 1415.23 1789.04 1435.67 1803.35 1452.81C1817.66 1469.95 1836.03 1483.26 1856.79 1491.52C1862.69 1494.06 1871.21 1493.32 1873.92 1499.13C1875.43 1505.34 1875.82 1511.77 1875.06 1518.11C1875.47 1528.09 1876.05 1537.99 1876.62 1547.98C1877.19 1557.96 1877.52 1569.08 1878.59 1579.55C1879.02 1582.72 1878.75 1585.93 1877.79 1588.98C1876.82 1592.02 1875.19 1594.81 1873.02 1597.14C1865.64 1605.33 1859.17 1614.57 1852.45 1623.41C1826.46 1656.65 1803.42 1692.1 1783.61 1729.35C1777.06 1741.17 1771.58 1753.55 1767.22 1766.33C1756.16 1803.31 1771.89 1828.76 1809.51 1835.87C1847.25 1842.65 1886.14 1838.85 1921.85 1824.91C1925.54 1823.52 1928.82 1820.08 1933.49 1822.46C1938.9 1831.21 1944.31 1840.21 1949.88 1848.96C1959.83 1863.52 1972.55 1875.98 1987.33 1885.62C2002.31 1896.13 2020.15 1901.84 2038.46 1901.98C2051.94 1902.24 2065.43 1901.8 2078.86 1900.67C2115.54 1896.48 2151.97 1890.39 2188.01 1882.43C2193.71 1880.96 2199.64 1880.62 2205.47 1881.44C2207.81 1881.77 2210.04 1882.63 2212 1883.95C2213.96 1885.26 2215.59 1887.01 2216.77 1889.05C2219.11 1893.76 2219.97 1899.06 2219.26 1904.27C2218.54 1909.48 2216.28 1914.35 2212.76 1918.26C2207.7 1923.23 2201.18 1926.47 2194.16 1927.5C2190.63 1927.99 2187.11 1927.5 2183.67 1928.49C2180.43 1928.78 2177.3 1929.77 2174.49 1931.38C2171.67 1933 2169.24 1935.2 2167.35 1937.85C2165.47 1940.49 2164.18 1943.5 2163.57 1946.69C2162.97 1949.88 2163.06 1953.15 2163.84 1956.3C2164.96 1964.48 2168.24 1972.22 2173.34 1978.72C2182.73 1990.77 2194.72 2000.56 2208.42 2007.35C2219.1 2012.25 2230.88 2014.28 2242.59 2013.24C2258.93 2011.67 2274.92 2007.5 2289.95 2000.89C2317.35 1990.42 2342.42 1974.66 2363.7 1954.5C2375.82 1942.9 2384.99 1928.58 2390.47 1912.73C2395.94 1896.88 2397.55 1879.96 2395.17 1863.36C2394.76 1859.52 2392.05 1855.75 2394.1 1851.66C2397.94 1850.17 2402.11 1849.8 2406.15 1850.6C2430.87 1851.2 2455.59 1849.22 2479.9 1844.71C2518.99 1837.02 2557.99 1828.35 2596.75 1819.67C2664.27 1802.39 2730.62 1780.83 2795.39 1755.12C2798.24 1754.16 2800.99 1752.9 2803.58 1751.36C2808.17 1748.33 2807.19 1744.9 2804.07 1741.54C2805.9 1740.98 2807.82 1740.81 2809.72 1741.05C2811.61 1741.29 2813.43 1741.93 2815.05 1742.93C2821.86 1746.29 2828.82 1749.32 2835.62 1752.75C2839.15 1754.55 2842.26 1755.12 2844.96 1751.69C2847.67 1748.25 2846.69 1745.55 2841.69 1742.61ZM2192.85 1213.69C2195.04 1209.51 2197.79 1205.66 2201.04 1202.23C2208.45 1194.74 2216.24 1187.64 2224.4 1180.96C2228.07 1177.59 2232.47 1175.1 2237.25 1173.68C2242.04 1172.26 2247.09 1171.96 2252.01 1172.78C2256.36 1173.45 2260.81 1173.05 2264.98 1171.63C2269.15 1170.2 2272.91 1167.79 2275.94 1164.6C2280.28 1160.76 2284.13 1156.42 2289.05 1152.98C2292.35 1150 2296.53 1148.16 2300.96 1147.75C2305.39 1147.33 2309.84 1148.37 2313.63 1150.69C2318.1 1153.54 2323.22 1155.2 2328.51 1155.53C2333.8 1155.86 2339.08 1154.84 2343.87 1152.57C2346 1151.67 2348.46 1151.43 2350.59 1150.61C2352.3 1149.72 2354.17 1149.17 2356.1 1149.02C2358.02 1148.86 2359.96 1149.09 2361.79 1149.69C2363.63 1150.29 2365.32 1151.26 2366.78 1152.52C2368.23 1153.79 2369.41 1155.34 2370.26 1157.07C2379.6 1174.5 2394.35 1175.32 2411.23 1171.31C2431.8 1166.32 2440.24 1171.31 2446.06 1191.44C2447.45 1196.51 2448.68 1201.66 2449.83 1206.73C2455.48 1231.37 2467.39 1254.13 2484.41 1272.84C2498.6 1289.08 2515.01 1303.23 2533.16 1314.89C2523.9 1325.61 2515.38 1335.1 2507.19 1344.92C2492.79 1361.94 2480.75 1380.82 2471.38 1401.04C2469.16 1405.72 2466.03 1409.91 2462.15 1413.35C2458.28 1416.8 2453.75 1419.43 2448.84 1421.08C2426.31 1429.75 2401.9 1432.35 2378.04 1428.61C2366.9 1427.12 2356.53 1422.1 2348.46 1414.29C2333.38 1401.21 2322.21 1384.22 2316.17 1365.21C2311.69 1348.85 2308.21 1332.24 2305.77 1315.46C2303.39 1301.64 2301.26 1287.81 2298.47 1274.07C2296.65 1266.1 2294.32 1258.26 2291.51 1250.59C2288.99 1243.37 2284.94 1236.78 2279.63 1231.28C2275.83 1226.33 2270.37 1222.93 2264.25 1221.7C2258.13 1220.46 2251.78 1221.48 2246.36 1224.57C2234.56 1229.64 2222.84 1235.04 2211.12 1240.28C2206.86 1242.16 2202.93 1244.2 2198.25 1245.84C2197.44 1246.26 2196.55 1246.47 2195.64 1246.46C2194.73 1246.46 2193.83 1246.23 2193.02 1245.81C2192.22 1245.38 2191.53 1244.77 2191.01 1244.02C2190.5 1243.27 2190.17 1242.41 2190.06 1241.51C2187.55 1232.21 2188.54 1222.31 2192.85 1213.69ZM2003.96 1152.08C2017.92 1147.46 2032.92 1146.97 2047.15 1150.69C2050.56 1151.52 2053.73 1153.12 2056.43 1155.36C2059.13 1157.6 2061.28 1160.42 2062.72 1163.62C2064.27 1167.38 2066.16 1171.06 2067.47 1174.91C2071.44 1189.37 2077.87 1203.04 2086.48 1215.33C2083.44 1219.99 2079.11 1223.68 2074.03 1225.96C2070.65 1227.72 2066.9 1228.63 2063.09 1228.63C2059.28 1228.63 2055.52 1227.72 2052.15 1225.96C2045.17 1222.84 2039.05 1218.1 2034.28 1212.13C2022.02 1195.05 2010.86 1177.2 2000.85 1158.71C2000.58 1158.08 2000.44 1157.39 2000.46 1156.7C2000.47 1156.01 2000.63 1155.33 2000.92 1154.7C2001.22 1154.08 2001.64 1153.52 2002.16 1153.07C2002.69 1152.62 2003.3 1152.28 2003.96 1152.08V1152.08ZM1968.48 1158.87C1971.38 1158.43 1974.32 1158.24 1977.25 1158.3C1979.55 1158.01 1981.88 1158.46 1983.92 1159.58C1985.95 1160.69 1987.57 1162.42 1988.56 1164.52C1995.36 1176.79 2002.82 1189.06 2010.11 1200.76C2013.8 1206.73 2018.3 1212.46 2021.91 1218.27C2025.51 1224.08 2026.33 1227.84 2021.34 1233.57C2017.56 1238.12 2012.64 1241.58 2007.08 1243.62C2001.53 1245.66 1995.53 1246.2 1989.7 1245.19C1976.28 1243.2 1963.83 1237.01 1954.14 1227.52C1952.27 1226.09 1950.84 1224.16 1950.04 1221.95C1944.88 1202.89 1932.34 1187.92 1920.63 1169.43C1937.59 1165.66 1952.99 1162.15 1968.48 1158.87ZM1876.54 1482.69C1871.79 1485.96 1868.34 1483.26 1865.72 1481.95C1836.59 1470.35 1812.77 1448.41 1798.85 1420.35C1794.42 1411.43 1791.2 1401.97 1789.27 1392.2C1783.43 1367.11 1780.68 1341.39 1781.07 1315.63C1781.62 1302.77 1783.82 1290.04 1787.63 1277.75C1789.98 1269.88 1793.97 1262.61 1799.35 1256.4C1803 1251.43 1808.24 1247.86 1814.2 1246.27C1820.15 1244.68 1826.48 1245.16 1832.12 1247.64C1835.97 1249.1 1839.69 1250.85 1843.27 1252.88C1846.29 1254.61 1849.2 1256.55 1851.96 1258.69C1856.22 1261.71 1860.15 1264.82 1865.07 1268.42C1855.14 1287.72 1847.55 1308.12 1842.45 1329.21C1839.5 1341.73 1836.55 1354.32 1834.26 1367.01C1831.22 1384.95 1832.71 1403.37 1838.6 1420.59C1844.25 1436.46 1852.45 1449.06 1870.88 1451.11C1874.49 1451.11 1875.72 1454.14 1875.8 1457.24C1876.54 1466 1876.54 1474.75 1876.54 1482.69ZM1859.33 1246.99C1851.81 1241.53 1843.52 1237.2 1834.75 1234.14C1830.09 1232.32 1825.12 1231.48 1820.12 1231.68C1815.13 1231.88 1810.23 1233.1 1805.74 1235.29C1805.27 1235.76 1804.7 1236.14 1804.09 1236.4C1803.47 1236.65 1802.8 1236.79 1802.13 1236.79C1801.46 1236.79 1800.8 1236.65 1800.18 1236.4C1799.56 1236.14 1799 1235.76 1798.53 1235.29C1805.49 1220.41 1815.6 1207.22 1828.16 1196.63C1840.73 1186.04 1855.44 1178.29 1871.29 1173.93C1880.28 1170.9 1890.04 1171 1898.96 1174.21C1907.89 1177.42 1915.47 1183.55 1920.46 1191.6C1924.15 1198.31 1928.66 1204.44 1932.34 1211.15C1937.93 1221.51 1940.56 1233.19 1939.96 1244.94C1939.14 1263.27 1928.66 1272.35 1910.05 1270.71C1900.12 1269.7 1890.54 1266.45 1882.03 1261.22C1873.51 1256.89 1866.21 1251.73 1859 1246.99H1859.33ZM1923.33 1810.92C1913.41 1814.52 1903.5 1818.12 1893.34 1820.74C1865.48 1828.16 1836.23 1828.7 1808.11 1822.29C1801.98 1821.45 1796.19 1818.98 1791.35 1815.14C1786.51 1811.29 1782.79 1806.22 1780.58 1800.45C1778.49 1794.95 1777.92 1788.98 1778.94 1783.19C1780.96 1771.66 1784.69 1760.49 1790 1750.05C1801.02 1726.79 1813.79 1704.39 1828.19 1683.05C1844.09 1659.89 1860.97 1637.23 1877.36 1614.41C1879.03 1612.63 1880.84 1610.99 1882.77 1609.5C1886.62 1633.55 1889.98 1655.48 1893.83 1677.4C1899.15 1711.47 1906.96 1745.1 1917.18 1778.03C1919.97 1786.21 1923 1794.39 1926.53 1802.58C1927.67 1806.83 1926.69 1809.53 1923 1810.92H1923.33ZM2195.06 1868.84C2173.67 1871.46 2152.53 1877.03 2131.22 1880.71C2102.95 1886.48 2074.2 1889.54 2045.35 1889.87C2024.06 1889.98 2003.42 1882.56 1987.08 1868.93C1971.26 1855.77 1958.38 1839.44 1949.31 1820.98C1935.05 1793.4 1924.55 1764.05 1918.08 1733.69C1907.36 1686.9 1899.31 1639.53 1893.99 1591.83C1889.62 1546.78 1888.16 1501.5 1889.65 1456.26C1889.65 1439.25 1889.65 1422.31 1889.65 1406.11C1923.58 1387.79 1979.79 1377.8 2012.57 1384.43L1996.18 1392.61C1987.64 1396.38 1980.03 1401.96 1973.89 1408.98C1972.56 1410.15 1971.64 1411.73 1971.29 1413.47C1970.93 1415.22 1971.16 1417.03 1971.92 1418.63C1972.74 1420.2 1973.98 1421.52 1975.49 1422.44C1977.01 1423.37 1978.75 1423.86 1980.53 1423.87C1984.11 1424.01 1987.7 1423.9 1991.26 1423.54C2046.34 1417.29 2102.06 1426.76 2151.96 1450.86C2153.5 1451.71 2154.98 1452.67 2156.38 1453.73C2156.38 1463.38 2148.84 1457.33 2144.99 1458.47C2141.14 1459.62 2134.75 1457.65 2129.83 1459.94C2124.67 1461.01 2119.51 1461.91 2114.43 1463.14C2112.96 1463.45 2111.62 1464.21 2110.6 1465.31C2109.57 1466.4 2108.91 1467.79 2108.69 1469.27C2108.6 1471.06 2109.09 1472.82 2110.1 1474.3C2111.1 1475.78 2112.57 1476.88 2114.26 1477.45C2116.46 1478.27 2118.7 1478.95 2120.98 1479.5C2155.47 1491.17 2187.41 1509.33 2215.05 1533C2245.8 1559.48 2274.2 1588.54 2299.95 1619.89C2301.1 1621.2 2302 1622.75 2303.06 1624.14C2304.75 1626.91 2307.33 1629.03 2310.39 1630.15C2313.44 1631.26 2316.78 1631.31 2319.86 1630.28C2332.23 1626.92 2344.44 1624.55 2357.23 1621.12C2361.96 1619.6 2366.97 1619.13 2371.9 1619.72C2376.84 1620.32 2381.59 1621.97 2385.83 1624.56C2390.07 1627.16 2393.7 1630.63 2396.47 1634.75C2399.24 1638.87 2401.09 1643.54 2401.89 1648.44C2404.29 1665.35 2402.09 1682.59 2395.5 1698.35C2390.98 1709.16 2385.5 1719.53 2379.11 1729.35C2371.16 1741.65 2364.44 1754.69 2359.03 1768.3C2352.79 1782.35 2351.52 1798.1 2355.43 1812.97C2356.15 1814.83 2356.24 1816.89 2355.68 1818.81C2355.12 1820.74 2353.93 1822.42 2352.31 1823.6C2340.93 1834.67 2327.21 1843.06 2312.16 1848.15C2291.96 1854.25 2271.29 1858.71 2250.37 1861.48C2231.93 1863.85 2213.41 1866.64 2194.73 1868.84H2195.06ZM2384.6 1881.12C2384.42 1893.13 2381.86 1904.98 2377.08 1916C2372.3 1927.02 2365.39 1936.99 2356.74 1945.34C2337.21 1963.88 2314.24 1978.44 2289.13 1988.21C2274.77 1994.8 2259.44 1999.05 2243.73 2000.81C2235.61 2002.21 2227.26 2000.97 2219.89 1997.29C2219.89 1994.59 2222.02 1993.44 2223.99 1992.54C2238.13 1985.43 2251.2 1976.37 2262.83 1965.63C2301.45 1931.6 2334.27 1891.54 2360.01 1847C2362.06 1843.48 2363.95 1839.88 2366.9 1834.48C2372.93 1840.6 2377.62 1847.91 2380.67 1855.94C2383.72 1863.97 2385.06 1872.54 2384.6 1881.12V1881.12ZM2804.32 1742.61V1741.87C2800.88 1740.73 2798.01 1742.53 2794.81 1743.67C2743.43 1761.51 2692.3 1780.4 2639.94 1795.38C2580.77 1812.47 2520.55 1825.67 2459.66 1834.89C2438.75 1837.93 2417.59 1838.97 2396.48 1838C2393.26 1838.15 2390.06 1837.39 2387.25 1835.82C2384.44 1834.24 2382.13 1831.91 2380.58 1829.08C2378.76 1826.06 2376.73 1823.16 2374.52 1820.41C2370.6 1815.21 2367.99 1809.14 2366.89 1802.73C2365.79 1796.31 2366.24 1789.72 2368.21 1783.51C2373.7 1765.02 2381.99 1747.47 2392.79 1731.48C2394.11 1729.56 2396.1 1728.19 2398.36 1727.64C2421.33 1719.87 2441.35 1705.24 2455.73 1685.75C2476.21 1659.89 2488.63 1628.6 2491.45 1595.75C2493.75 1575.46 2496.21 1554.85 2498.58 1534.72C2498.94 1533.7 2499.44 1532.74 2500.06 1531.86C2503.42 1530.88 2505.55 1533.25 2507.84 1534.89C2515.72 1541.01 2522.82 1548.07 2528.98 1555.91C2538.33 1567.2 2547.67 1578.49 2557.17 1589.62C2584.56 1621.87 2617.61 1648.87 2654.69 1669.3C2697.3 1692.87 2741.88 1712.09 2786.37 1731.73C2792.19 1734.34 2798.17 1736.8 2803.99 1739.5C2804.4 1739.5 2803.99 1740.81 2803.99 1741.79H2804.48L2804.32 1742.61ZM3667.94 2910.89C3665.73 2910.89 3664.99 2909.26 3664.5 2907.54C3664.02 2905.23 3664.09 2902.85 3664.7 2900.57C3665.31 2898.3 3666.45 2896.2 3668.02 2894.45C3675.31 2883.89 3682.69 2873.34 3690.64 2863.28C3712.6 2835.3 3734.97 2807.64 3757.18 2779.83C3781.1 2749.72 3805.03 2719.72 3828.96 2689.83C3840.19 2675.68 3851.25 2661.36 3862.39 2647.13C3864.17 2644.81 3866.18 2642.67 3868.38 2640.75C3869.4 2639.62 3870.8 2638.92 3872.32 2638.76C3873.83 2638.61 3875.35 2639.03 3876.57 2639.93C3877.2 2640.38 3877.74 2640.95 3878.13 2641.62C3878.53 2642.29 3878.78 2643.03 3878.88 2643.8C3878.97 2644.57 3878.9 2645.35 3878.67 2646.1C3878.44 2646.84 3878.06 2647.52 3877.55 2648.11C3874.77 2652.53 3871.9 2656.95 3868.7 2661.12L3776.93 2778.11C3762.17 2797.01 3748.16 2816.4 3732.76 2834.64C3713.99 2857.06 3695.8 2879.8 3678.75 2903.45C3676.54 2906.16 3674.04 2908.63 3671.3 2910.81C3670.4 2910.73 3669 2910.65 3667.94 2910.89ZM3092.77 125.99C3092.27 127.053 3091.21 129.671 3089.98 132.289C3071.89 168.964 3051.87 204.657 3030 239.219C3009.1 271.944 2987.71 304.669 2966.57 337.966C2957.48 352.202 2948.38 366.519 2939.2 380.754C2937.71 383.237 2935.99 385.566 2934.04 387.708C2933.37 388.692 2932.34 389.373 2931.18 389.602C2930.01 389.832 2928.8 389.593 2927.81 388.936C2926.79 388.354 2925.97 387.463 2925.48 386.389C2925 385.316 2924.87 384.116 2925.11 382.963C2926.18 379.069 2927.69 375.309 2929.61 371.755C2937.07 359.156 2944.45 346.557 2952.48 334.367C2982.58 289.151 3011.61 243.282 3039.58 196.758C3048.6 181.704 3056.55 166.078 3064.99 150.779C3069.58 142.598 3074.33 134.417 3078.84 126.235C3080.47 123.119 3083.27 120.769 3086.62 119.69C3089.32 118.954 3093.18 121.736 3092.77 125.99ZM3741.28 813.298C3741.61 817.045 3740.47 820.774 3738.08 823.688C3727.61 841.27 3718.03 859.374 3709.4 877.93C3688.92 917.282 3668.43 956.879 3648.11 996.149C3637.45 1016.27 3626.06 1035.99 3614.84 1055.79C3613.01 1058.72 3610.9 1061.46 3608.53 1063.97C3607.57 1065.17 3606.22 1065.98 3604.71 1066.25C3603.2 1066.52 3601.65 1066.23 3600.33 1065.44C3599.7 1065.07 3599.15 1064.58 3598.72 1064C3598.28 1063.41 3597.96 1062.74 3597.79 1062.04C3597.61 1061.33 3597.58 1060.59 3597.69 1059.87C3597.81 1059.15 3598.06 1058.46 3598.45 1057.84C3600.58 1053.01 3602.87 1048.26 3605.41 1043.68C3617.87 1020.61 3630.82 997.703 3643.03 974.469C3664.74 933.071 3685.97 891.429 3707.52 849.95C3712.93 839.641 3718.74 829.497 3724.73 819.434C3726.97 816.052 3729.58 812.925 3732.51 810.107C3732.86 809.64 3733.31 809.249 3733.82 808.958C3734.32 808.667 3734.89 808.481 3735.47 808.412C3736.05 808.343 3736.64 808.393 3737.2 808.558C3737.76 808.722 3738.29 808.999 3738.74 809.371C3739.83 810.506 3740.69 811.839 3741.28 813.298V813.298ZM3650.57 2123.53C3649.66 2123.5 3648.8 2123.16 3648.13 2122.56C3647.45 2121.96 3647.01 2121.14 3646.88 2120.25C3646.41 2118.25 3646.41 2116.17 3646.88 2114.17C3647.35 2112.17 3648.27 2110.3 3649.58 2108.72C3655.97 2098.98 3662.12 2089 3669.09 2079.68C3699.84 2038.44 3728.85 1996.04 3756.11 1952.46C3769.47 1931.19 3783.89 1910.57 3797.74 1889.62C3800.04 1885.51 3803.82 1882.41 3808.31 1880.95C3809.14 1880.65 3810.05 1880.63 3810.9 1880.9C3811.74 1881.16 3812.47 1881.7 3812.98 1882.43C3813.81 1883.85 3814.29 1885.45 3814.37 1887.09C3814.37 1888.07 3813.55 1889.22 3812.9 1890.2C3787.66 1929.47 3762.91 1969.15 3736.94 2008.01C3717.51 2037.05 3696.45 2065.28 3676.13 2093.58C3669.99 2102.17 3663.92 2110.68 3657.61 2119.11C3656.88 2120.35 3655.85 2121.4 3654.63 2122.17C3653.4 2122.94 3652.01 2123.4 3650.57 2123.53V2123.53ZM747.746 2457.24C746.975 2459.31 745.927 2461.26 744.633 2463.05C728.244 2483.09 714.395 2504.53 700.218 2525.96L644.414 2610.72L599.262 2679.44C598.241 2680.88 597.059 2682.2 595.738 2683.37C594.962 2684.25 593.882 2684.81 592.712 2684.93C591.542 2685.05 590.37 2684.73 589.429 2684.03C588.411 2683.41 587.626 2682.47 587.196 2681.36C586.767 2680.25 586.716 2679.03 587.052 2677.89C589.601 2671.33 592.67 2664.98 596.23 2658.91C608.03 2640.09 620.24 2621.6 632.368 2603.03C650.15 2575.62 667.686 2547.97 686.042 2521.22C700.625 2498.69 716.58 2477.08 733.816 2456.5C735.864 2453.68 738.721 2451.54 742.01 2450.37C744.551 2449.63 748.32 2452.58 747.746 2457.24ZM97.5129 1334.77C97.3105 1339.48 96.1682 1344.09 94.1532 1348.35C73.9128 1409.79 53.1807 1471.07 28.5972 1531.12C24.2541 1541.92 20.4027 1552.97 16.1415 1563.85C15.133 1566.57 13.7839 1569.15 12.1262 1571.54C11.5744 1572.56 10.6908 1573.37 9.61943 1573.83C8.54803 1574.29 7.35199 1574.38 6.2262 1574.07C5.11841 1573.65 4.1575 1572.91 3.45952 1571.95C2.76154 1571 2.35633 1569.86 2.29284 1568.67C2.05188 1563.4 3.27106 1558.16 5.81647 1553.54C13.1096 1533.25 20.8124 1513.04 28.2694 1492.83C34.9889 1474.83 41.8723 1456.84 48.3459 1438.76C58.9988 1409.06 69.2419 1379.36 79.7308 1349.66C81.8614 1343.61 84.4017 1337.72 86.8601 1331.74C88.0892 1328.72 90.1379 1326.84 93.4976 1327.82C96.8574 1328.8 97.2671 1331.91 97.5129 1334.77ZM4031.69 177.777C4031.35 179.471 4030.74 181.1 4029.89 182.604C3996.62 221.302 3971.05 265.48 3942.13 307.205C3929.18 325.94 3916.89 345.166 3905.74 365.128C3903.44 369.108 3900.69 372.813 3897.55 376.173C3896.8 376.541 3895.97 376.733 3895.13 376.733C3894.29 376.733 3893.47 376.541 3892.71 376.173C3891.3 375.268 3890.28 373.867 3889.85 372.246C3889.53 370.506 3889.57 368.721 3889.95 366.994C3890.33 365.267 3891.04 363.632 3892.06 362.183C3897.79 352.038 3903.04 341.484 3909.35 331.749C3940.16 284.134 3971.46 236.928 4005.31 191.358C4009.49 185.709 4014.27 180.525 4019.56 175.896C4020.61 174.842 4021.95 174.118 4023.4 173.812C4024.86 173.507 4026.37 173.634 4027.76 174.177C4029.22 175.201 4030.54 176.411 4031.69 177.777V177.777ZM3145.87 960.479C3144.96 965.216 3142.84 969.64 3139.72 973.323C3124.48 996.149 3109.16 1018.89 3094.08 1041.8C3076.7 1068.14 3059.5 1094.57 3042.21 1120.91C3040.43 1123.92 3038.43 1126.79 3036.22 1129.5C3035.92 1130 3035.51 1130.43 3035.03 1130.77C3034.55 1131.11 3034.01 1131.35 3033.43 1131.47C3032.86 1131.59 3032.26 1131.6 3031.69 1131.49C3031.11 1131.37 3030.56 1131.14 3030.08 1130.81C3029.06 1130.21 3028.25 1129.32 3027.74 1128.26C3027.23 1127.2 3027.04 1126.01 3027.21 1124.84C3027.52 1122.53 3028.21 1120.29 3029.26 1118.21C3032.79 1110.84 3036.7 1103.66 3040.98 1096.7C3062.83 1063.64 3084.93 1030.65 3107.27 997.703C3115.47 985.595 3123.66 973.732 3132.26 961.788C3133.51 959.838 3135 958.051 3136.69 956.47C3137.56 955.676 3138.7 955.237 3139.88 955.237C3141.07 955.237 3142.21 955.676 3143.08 956.47C3144.19 957.674 3145.12 959.023 3145.87 960.479ZM375.962 552.315C375.286 555.092 374.437 557.825 373.422 560.497C358.672 594.122 346.544 628.81 333.433 663.09C327.041 679.943 320.731 696.878 314.175 713.732C312.879 716.947 311.112 719.952 308.931 722.649C308.212 723.595 307.16 724.232 305.987 724.429C304.815 724.627 303.611 724.371 302.621 723.713C301.526 723.26 300.607 722.466 300.001 721.448C299.395 720.431 299.136 719.245 299.261 718.068C300.247 713.533 301.562 709.076 303.195 704.732C315.405 672.007 327.778 639.282 340.152 606.557C345.97 591.34 352.526 576.368 358.999 561.397C360.564 556.336 363.726 551.916 368.013 548.797C368.717 548.366 369.5 548.079 370.316 547.953C371.132 547.826 371.965 547.863 372.766 548.061C374.077 548.716 374.733 550.679 375.962 552.315ZM1628.49 589.458C1629.03 593.202 1628.34 597.02 1626.52 600.339C1606.53 648.363 1585.55 695.897 1560.97 741.875C1558.76 745.966 1556.63 750.057 1554.17 754.147C1553.33 755.363 1552.15 756.302 1550.78 756.841C1549.41 757.381 1547.9 757.497 1546.46 757.174C1543.92 757.174 1541.88 755.211 1542.29 752.675C1542.85 749.804 1543.88 747.042 1545.32 744.493C1556.13 721.831 1567.2 699.251 1578.1 676.507C1589.65 651.963 1600.71 626.438 1612.02 601.485C1614.24 596.705 1616.78 592.085 1619.64 587.658C1619.96 587.158 1620.37 586.726 1620.86 586.385C1621.34 586.044 1621.89 585.802 1622.47 585.673C1623.04 585.544 1623.64 585.53 1624.23 585.632C1624.81 585.734 1625.37 585.95 1625.87 586.268C1626.92 587.17 1627.81 588.25 1628.49 589.458V589.458ZM1092.49 800.78C1092.3 802.023 1091.94 803.235 1091.42 804.38C1081.18 824.015 1070.94 843.732 1060.53 863.203C1051.68 879.566 1042.83 895.928 1033.65 912.291C1027.67 923.008 1021.2 933.317 1014.89 943.789C1013.99 945.343 1013.17 946.898 1012.18 948.37C1009.89 951.888 1007.1 954.915 1002.27 953.361C998.826 952.216 998.088 948.289 1000.96 942.807C1008.58 928.408 1016.53 914.091 1024.39 899.855C1035.37 879.975 1046.52 860.176 1057.17 840.296L1075.77 806.589C1076.75 804.161 1078.25 801.974 1080.16 800.18C1082.07 798.386 1084.35 797.028 1086.83 796.199C1087.52 796.067 1088.22 796.086 1088.89 796.255C1089.56 796.423 1090.19 796.737 1090.73 797.173C1091.27 797.61 1091.71 798.159 1092.01 798.782C1092.31 799.406 1092.48 800.087 1092.49 800.78V800.78ZM4075.53 1211.48C4075.9 1214.39 4075.11 1217.33 4073.32 1219.66C4054.75 1250.64 4036.12 1281.68 4017.43 1312.76C4009.24 1326.26 4001.04 1339.6 3992.44 1352.93C3990.71 1355.98 3988.74 1358.88 3986.54 1361.61C3984.57 1363.81 3981.95 1365.53 3978.84 1363.65C3978.18 1363.32 3977.61 1362.84 3977.15 1362.27C3976.69 1361.69 3976.36 1361.03 3976.18 1360.31C3976.01 1359.6 3975.98 1358.86 3976.11 1358.14C3976.25 1357.41 3976.53 1356.73 3976.95 1356.12C3981.87 1346.23 3986.29 1335.92 3992.03 1326.43C4013.23 1291.47 4034.78 1256.72 4056.69 1222.2C4059.07 1216.84 4062.69 1212.13 4067.26 1208.45C4068.21 1207.77 4069.36 1207.41 4070.53 1207.41C4071.71 1207.41 4072.85 1207.77 4073.81 1208.45C4074.58 1209.34 4075.17 1210.37 4075.53 1211.48ZM780.115 1911.88C782.219 1901.17 785.631 1890.75 790.276 1880.87C798.47 1862.71 806.665 1844.79 814.859 1826.79C823.054 1808.79 831.658 1790.8 840.18 1772.8C842.018 1769.17 844.099 1765.67 846.408 1762.32C847.064 1761.33 848.067 1760.63 849.219 1760.34C850.372 1760.05 851.591 1760.2 852.636 1760.77C854.025 1761.29 855.172 1762.3 855.853 1763.62C856.534 1764.93 856.702 1766.46 856.324 1767.89C855.846 1769.56 855.186 1771.18 854.357 1772.71C845.015 1793.49 836.001 1814.44 826.25 1834.97C816.498 1855.51 807.484 1875.23 799.208 1895.84C796.536 1902.32 793.528 1908.66 790.194 1914.82C788.883 1917.44 786.916 1919.98 783.474 1919.4C780.033 1918.83 780.524 1915.31 780.115 1911.88ZM470.445 1361.12C467.413 1361.12 464.135 1357.52 464.708 1355.06C466.265 1348.27 467.986 1341.48 469.953 1334.77C477.574 1309.08 488.063 1284.29 497.486 1259.26C503.223 1243.96 509.123 1228.74 514.859 1213.44C515.678 1211.32 516.252 1208.94 517.153 1206.82C518.874 1202.73 522.152 1200.76 525.348 1201.74C527.198 1202.62 528.653 1204.15 529.427 1206.05C530.2 1207.94 530.236 1210.05 529.527 1211.97C519.775 1238.81 509.86 1265.64 500.191 1292.47C493.799 1309.98 487.735 1327.65 481.425 1345.16C479.871 1349.57 478.009 1353.86 475.853 1358.01C475.404 1359.03 474.636 1359.89 473.662 1360.45C472.689 1361.01 471.561 1361.24 470.445 1361.12ZM228.625 2182.6C227.496 2182.24 226.497 2181.57 225.753 2180.65C225.009 2179.73 224.554 2178.62 224.446 2177.44C224.42 2172.73 226.109 2168.16 229.199 2164.6C236.082 2153.8 243.293 2143.08 250.422 2132.36C266.811 2107.82 283.2 2082.46 297.295 2056.36C300.136 2051.24 303.283 2046.29 306.718 2041.55C308.204 2039.81 310.049 2038.42 312.127 2037.46C313.222 2037.01 314.423 2036.89 315.586 2037.11C316.749 2037.33 317.824 2037.87 318.682 2038.69C319.623 2039.37 320.253 2040.4 320.437 2041.55C320.621 2042.7 320.344 2043.88 319.666 2044.82C295.362 2088.82 268.832 2131.55 240.179 2172.86C237.708 2176.06 234.966 2179.04 231.985 2181.78C231.165 2182.43 229.444 2182.35 228.625 2182.6ZM3302.38 615.72C3298.78 616.375 3295.25 612.529 3296.4 610.075C3298.7 604.705 3301.44 599.533 3304.59 594.613C3311.4 584.386 3318.77 574.568 3325.82 564.505C3342.21 540.616 3359.17 516.563 3375.89 492.592C3379.75 486.719 3384.7 481.638 3390.47 477.62C3391.47 476.951 3392.68 476.696 3393.86 476.91C3395.04 477.124 3396.09 477.79 3396.78 478.766C3397.4 479.369 3397.82 480.143 3398 480.988C3398.17 481.834 3398.09 482.712 3397.77 483.511C3396.98 485.716 3395.91 487.808 3394.57 489.729C3383.1 503.146 3374.66 518.609 3364.66 532.926C3347.53 557.47 3330.49 582.013 3313.28 606.066C3311.19 609.027 3308.8 611.769 3306.15 614.248C3305.01 614.992 3303.73 615.493 3302.38 615.72V615.72ZM2633.96 721.749C2630.19 722.24 2626.34 718.231 2627.73 715.123C2631.66 706.941 2635.35 698.024 2640.1 690.006C2657.56 660.963 2675.42 632.246 2693.12 603.366C2696.81 597.394 2700.33 591.34 2704.18 585.531C2705.61 583.686 2707.32 582.084 2709.26 580.786C2711.48 578.986 2715.33 580.786 2716.23 583.731C2716.64 585.439 2716.67 587.213 2716.33 588.935C2715.99 590.657 2715.29 592.286 2714.26 593.713C2705.25 609.421 2696.4 625.21 2686.97 640.673C2671.57 666.199 2655.84 691.397 2640.27 716.759C2638.63 719.377 2637.15 721.749 2633.96 721.749ZM400.545 3111.33C397.268 3111.33 393.826 3107.57 394.482 3105.28C395.408 3101.94 396.671 3098.71 398.251 3095.62C406.937 3079.26 416.033 3062.9 424.555 3046.05C435.454 3024.69 446.762 3003.67 459.464 2983.3C461.54 2979.07 464.745 2975.51 468.724 2972.99C469.737 2972.41 470.898 2972.14 472.063 2972.21C473.228 2972.29 474.346 2972.7 475.279 2973.4C476.249 2974.09 476.928 2975.12 477.185 2976.28C477.442 2977.44 477.259 2978.66 476.672 2979.7C474.87 2983.3 472.247 2986.57 470.281 2990.09C461.103 3007.1 452.007 3024.09 442.993 3041.06C432.504 3060.69 422.015 3080.24 411.69 3099.88C410.083 3103.66 407.58 3107.01 404.397 3109.61C403.202 3110.37 401.905 3110.95 400.545 3111.33V3111.33ZM4046.36 3481.04C4046.62 3482.18 4046.62 3483.36 4046.38 3484.51C4046.14 3485.65 4045.66 3486.73 4044.97 3487.67C4039.72 3498.06 4034.64 3508.61 4029.15 3518.84C4012.76 3550.26 3994.08 3580.61 3974.58 3610.31C3973.91 3611.6 3972.96 3612.72 3971.8 3613.58C3970.63 3614.45 3969.28 3615.03 3967.86 3615.3C3966.71 3615.55 3965.51 3615.47 3964.41 3615.06C3963.3 3614.66 3962.34 3613.94 3961.63 3613.01C3960.78 3611.52 3960.54 3609.76 3960.97 3608.1C3962.68 3604.42 3964.65 3600.86 3966.87 3597.46C3989.41 3561.38 4010.55 3524.49 4030.95 3487.26C4032.65 3484.24 4034.78 3481.49 4037.26 3479.08C4039.39 3477.04 4045.95 3478.67 4046.36 3481.04ZM3536.99 1483.75C3535.25 1483.55 3533.66 1482.69 3532.53 1481.35C3531.4 1480.01 3530.83 1478.3 3530.93 1476.55C3531.6 1473.65 3532.76 1470.88 3534.37 1468.37C3541.99 1457.24 3549.53 1446.12 3557.56 1435.65C3575.18 1412.33 3593.12 1389.26 3610.82 1366.02C3613.22 1362.02 3616.46 1358.58 3620.33 1355.96C3621.29 1355.3 3622.44 1354.95 3623.61 1354.95C3624.78 1354.95 3625.92 1355.3 3626.88 1355.96C3627.87 1356.64 3628.56 1357.67 3628.82 1358.84C3629.08 1360.01 3628.88 1361.23 3628.28 1362.26C3626.07 1366.39 3623.52 1370.33 3620.66 1374.04C3605.91 1394.41 3591.32 1414.95 3576.24 1434.91C3565.02 1449.88 3552.72 1464.04 3542.73 1479.91C3542.23 1481.02 3541.43 1481.98 3540.41 1482.66C3539.4 1483.34 3538.21 1483.72 3536.99 1483.75ZM3716.61 8.17962C3716.87 11.9315 3715.83 15.6585 3713.66 18.7335C3694.98 57.1854 3675.56 95.2282 3653.27 131.717C3651.42 136.084 3647.96 139.571 3643.6 141.452C3642.78 141.653 3641.92 141.677 3641.09 141.521C3640.25 141.366 3639.46 141.036 3638.77 140.552C3638.11 140.024 3637.59 139.347 3637.25 138.58C3636.91 137.812 3636.75 136.974 3636.8 136.135C3637.04 133.827 3637.76 131.596 3638.93 129.59C3643.93 120.263 3649.01 111.018 3654.25 101.937C3670.15 74.6115 3685.56 47.0406 3699.57 18.6516C3701.39 13.7076 3704.17 9.17432 3707.76 5.31617C3709.65 3.67992 3711.86 2.69818 3713.99 4.41625C3715.11 5.47847 3716.01 6.75932 3716.61 8.17962V8.17962ZM1054.06 212.711C1053.62 214.184 1053.1 215.632 1052.5 217.047L1012.43 304.669C1008.58 312.85 1004.81 321.686 1000.87 330.112C999.179 335.749 995.664 340.668 990.877 344.102C990.118 344.448 989.294 344.627 988.46 344.627C987.626 344.627 986.801 344.448 986.042 344.102C985.3 343.694 984.661 343.12 984.178 342.424C983.695 341.729 983.379 340.931 983.256 340.093C983.628 336.619 984.454 333.208 985.715 329.949C988.419 322.913 991.287 315.877 994.565 309.005C1008.55 279.498 1022.64 249.99 1036.85 220.483C1038.34 215.459 1041.17 210.934 1045.04 207.393C1046.53 206.617 1048.26 206.442 1049.88 206.903C1051.11 207.291 1052.18 208.066 1052.93 209.113C1053.69 210.16 1054.08 211.422 1054.06 212.711V212.711ZM2721.15 1064.38C2720.02 1064.04 2719.03 1063.33 2718.35 1062.37C2717.67 1061.4 2717.32 1060.24 2717.38 1059.06C2717.6 1056.21 2718.38 1053.43 2719.67 1050.88C2725.52 1039.97 2731.53 1029.31 2737.7 1018.89C2752.69 993.204 2767.85 967.678 2782.93 942.071C2784.22 938.734 2786.51 935.877 2789.49 933.889C2790.47 933.23 2791.65 932.927 2792.83 933.031C2794 933.135 2795.11 933.641 2795.96 934.462C2796.51 935.086 2796.93 935.812 2797.2 936.598C2797.47 937.384 2797.57 938.215 2797.52 939.044C2796.58 942.388 2795.29 945.624 2793.67 948.698C2778.92 976.514 2763.92 1004.25 2746.96 1030.51C2741.3 1039.35 2735.98 1048.43 2730.57 1057.18C2728.89 1059.56 2726.91 1061.7 2724.67 1063.56C2723.69 1064.54 2722.21 1064.22 2721.15 1064.38ZM783.638 1380.91C784.053 1384.05 783.357 1387.23 781.672 1389.91C763.316 1419.69 747.091 1450.7 727.588 1479.91C722.753 1487.19 718.328 1494.8 713.739 1502.16C713.129 1503.5 712.056 1504.58 710.717 1505.19C709.378 1505.81 707.863 1505.92 706.446 1505.51C705.654 1505.15 704.942 1504.62 704.352 1503.98C703.763 1503.33 703.306 1502.58 703.009 1501.76C702.712 1500.94 702.581 1500.07 702.622 1499.2C702.663 1498.32 702.877 1497.47 703.25 1496.68C705.498 1490.68 708.239 1484.88 711.445 1479.33C725.457 1456.43 739.716 1433.76 753.892 1411.02C759.71 1401.61 765.528 1392.2 771.429 1382.8C772.278 1381.27 773.325 1379.87 774.542 1378.62C775.319 1377.73 776.387 1377.14 777.558 1376.96C778.728 1376.78 779.925 1377.02 780.934 1377.64C782.035 1378.55 782.952 1379.66 783.638 1380.91ZM780.115 3120.9C779.202 3119.85 778.405 3118.7 777.738 3117.47C776.97 3115.89 776.571 3114.15 776.571 3112.4C776.571 3110.64 776.97 3108.9 777.738 3107.32C780.505 3101.55 783.569 3095.93 786.916 3090.47C798.552 3072.2 810.298 3054.09 822.152 3036.15C828.69 3025.76 834.6 3015 839.853 3003.91C841.683 3000.29 843.707 2996.77 845.917 2993.36C846.403 2992.63 847.148 2992.12 848 2991.92C848.853 2991.72 849.748 2991.86 850.505 2992.3C851.544 2992.78 852.425 2993.54 853.046 2994.5C853.772 2996.11 854.147 2997.85 854.147 2999.62C854.147 3001.38 853.772 3003.12 853.046 3004.73C849.866 3014.76 845.433 3024.36 839.853 3033.28C828.38 3050.79 816.908 3068.38 805.682 3086.05C798.51 3095.85 792.152 3106.22 786.67 3117.06C786.015 3119.6 784.048 3120.82 780.115 3120.9ZM564.354 179.986C564.169 181.335 563.811 182.655 563.288 183.913C545.67 220.811 530.51 258.608 515.76 296.815C514.705 299.617 513.473 302.349 512.073 304.996C510.598 307.696 508.467 309.741 505.025 308.023C503.657 307.472 502.499 306.502 501.719 305.252C500.938 304.003 500.575 302.538 500.682 301.069C501.218 297.6 502.124 294.199 503.386 290.924C507.648 279.389 511.581 267.771 516.416 256.481C526.249 233.41 536.492 210.42 546.653 187.513C548.373 182.485 551.679 178.15 556.077 175.159C556.936 174.831 557.858 174.699 558.775 174.774C559.692 174.849 560.58 175.128 561.375 175.591C562.169 176.055 562.849 176.69 563.365 177.451C563.88 178.211 564.218 179.078 564.354 179.986V179.986ZM3803.97 2387.29C3801.59 2387.29 3798.39 2383.2 3798.97 2380.99C3799.56 2378.75 3800.33 2376.56 3801.26 2374.45C3806.21 2363.85 3812.28 2353.81 3819.37 2344.5C3836.25 2321.51 3853.13 2298.52 3867.88 2273.98C3869.33 2271.48 3871.16 2269.22 3873.29 2267.27C3874.15 2266.46 3875.26 2265.97 3876.44 2265.88C3877.62 2265.79 3878.79 2266.11 3879.77 2266.78C3880.81 2267.37 3881.6 2268.32 3881.99 2269.45C3882.39 2270.58 3882.35 2271.81 3881.9 2272.92C3879.58 2278.33 3876.84 2283.56 3873.7 2288.54C3864.11 2303.76 3854.2 2318.98 3844.2 2333.95C3833.14 2350.31 3821.83 2366.67 3810.6 2383.04C3809.95 2384.25 3808.99 2385.27 3807.83 2386.01C3806.67 2386.76 3805.34 2387.2 3803.97 2387.29ZM2132.04 911.718C2132.34 915.448 2131.29 919.162 2129.09 922.19C2120.9 936.508 2113.36 950.907 2105.25 965.06C2095 982.732 2084.51 1000.24 2074.11 1017.83C2072.44 1020.9 2070.52 1023.82 2068.37 1026.58C2066.08 1029.36 2063.29 1031.66 2059.28 1029.45C2058.54 1028.98 2057.91 1028.36 2057.42 1027.64C2056.92 1026.92 2056.58 1026.11 2056.41 1025.25C2056.25 1024.39 2056.25 1023.51 2056.44 1022.66C2056.62 1021.8 2056.97 1021 2057.47 1020.28C2064.47 1007.41 2071.54 994.649 2078.7 981.995C2090.01 962.197 2101.64 942.643 2112.95 922.845C2115.51 917.612 2118.97 912.875 2123.19 908.855C2125.08 907.3 2127.37 906.237 2129.5 907.955C2130.52 909.085 2131.38 910.352 2132.04 911.718V911.718ZM48.1001 1048.84C49.4112 1043.44 50.7223 1035.91 53.0987 1028.79C62.1127 1002.28 71.2905 975.859 80.6322 949.516C82.8308 944.045 85.5762 938.81 88.8267 933.889C89.1628 933.237 89.6266 932.659 90.1908 932.188C90.7549 931.718 91.4078 931.366 92.1109 931.152C92.8139 930.938 93.5528 930.868 94.2837 930.945C95.0145 931.021 95.7225 931.244 96.3657 931.599C97.7388 932.163 98.8391 933.238 99.4352 934.596C100.031 935.954 100.077 937.489 99.5615 938.88C98.0046 943.216 95.956 947.47 94.1532 951.806C82.5989 979.868 74.6503 1009.08 65.4724 1038.04C63.6696 1043.52 61.621 1049 59.4904 1054.4C59.0693 1055.81 58.1855 1057.03 56.9814 1057.88C55.7773 1058.73 54.3231 1059.14 52.8529 1059.06C49.5751 1058.9 47.6084 1055.38 48.1001 1048.84ZM1211.96 1115.51C1211.17 1115.45 1210.39 1115.21 1209.7 1114.81C1209.01 1114.41 1208.41 1113.86 1207.96 1113.2C1207.5 1112.54 1207.2 1111.79 1207.07 1111C1206.94 1110.22 1206.99 1109.41 1207.21 1108.64C1209.52 1101.45 1212.26 1094.4 1215.41 1087.53C1228.19 1062.58 1241.3 1037.79 1254.33 1013C1255.99 1009.93 1257.91 1007 1260.07 1004.25C1261.21 1002.92 1262.6 1001.84 1264.16 1001.06C1266.7 999.585 1272.36 1003.02 1271.95 1005.88C1271.7 1008.18 1271.06 1010.42 1270.06 1012.51C1264.66 1023.56 1259.25 1034.6 1253.67 1045.24C1243.1 1065.36 1232.37 1085.49 1221.72 1105.61C1220.39 1108.22 1218.86 1110.71 1217.13 1113.06C1216.58 1113.9 1215.8 1114.58 1214.89 1115.01C1213.98 1115.44 1212.97 1115.62 1211.96 1115.51V1115.51ZM1065.28 3129.74C1064.02 3129.86 1062.75 3129.54 1061.7 3128.82C1060.65 3128.1 1059.89 3127.04 1059.55 3125.81C1058.81 3122.37 1059.39 3118.78 1061.19 3115.75C1065.86 3106.34 1070.28 3096.77 1075.28 3087.61C1086.92 3066.09 1098.88 3044.74 1110.76 3023.38C1112.13 3020.83 1113.9 3018.5 1116.01 3016.51C1116.71 3016.09 1117.5 3015.81 1118.32 3015.71C1119.14 3015.62 1119.97 3015.69 1120.76 3015.94C1121.93 3016.17 1122.98 3016.83 1123.7 3017.78C1124.42 3018.72 1124.78 3019.9 1124.69 3021.09C1123.95 3024.46 1122.73 3027.71 1121.09 3030.75C1105.52 3060.8 1089.89 3090.8 1074.22 3120.74C1072.87 3123.3 1071.22 3125.7 1069.3 3127.86C1068.09 3128.73 1066.73 3129.36 1065.28 3129.74V3129.74Z" fill="black"/>
<path d="M1801.15 1536.04C1801.17 1537.21 1800.79 1538.36 1800.08 1539.29C1799.36 1540.23 1798.36 1540.9 1797.22 1541.19C1795.51 1541.62 1793.72 1541.67 1792 1541.33C1790.27 1540.99 1788.63 1540.27 1787.22 1539.23C1775.83 1532.19 1764.19 1525.4 1753.05 1517.87C1732.58 1503.01 1716.78 1482.63 1707.49 1459.13C1706.56 1456.97 1705.95 1454.68 1705.68 1452.34C1705.48 1451.2 1705.66 1450.02 1706.21 1448.99C1706.76 1447.97 1707.65 1447.16 1708.72 1446.7C1709.79 1446.2 1710.99 1446.07 1712.15 1446.32C1713.3 1446.57 1714.34 1447.19 1715.11 1448.09C1717.14 1450.93 1718.87 1453.97 1720.27 1457.17C1731.76 1482.39 1751.14 1503.2 1775.5 1516.48C1782.63 1520.49 1789.51 1524.66 1796.48 1529.25C1797.79 1529.86 1798.91 1530.82 1799.73 1532.01C1800.55 1533.2 1801.04 1534.59 1801.15 1536.04V1536.04Z" fill="#090707"/>
<path d="M121.444 3313.41C120.953 3314.48 120.051 3317.18 118.74 3319.71C106.694 3342.29 96.6971 3365.94 83.1762 3387.86C79.5706 3393.75 76.8664 3400.3 73.5066 3406.43C71.8615 3409.38 69.8818 3412.12 67.6066 3414.62C66.9905 3415.17 66.2602 3415.58 65.4672 3415.82C64.6742 3416.06 63.8379 3416.12 63.0177 3416.01C61.8778 3415.71 60.87 3415.04 60.1565 3414.11C59.443 3413.17 59.0654 3412.03 59.0843 3410.85C58.8929 3409.13 59.1177 3407.39 59.7399 3405.78C62.1436 3398.62 65.1309 3391.67 68.6719 3385C79.7345 3366.51 88.8304 3346.96 98.9096 3327.73C102.236 3321.6 105.93 3315.67 109.972 3309.98C111.508 3308.3 113.458 3307.06 115.626 3306.38C118.167 3305.23 121.936 3308.67 121.444 3313.41ZM1372.09 406.283C1371.52 408.714 1370.75 411.094 1369.79 413.401C1365.45 422.319 1361.03 431.236 1356.27 439.908C1348.08 454.226 1339.88 468.297 1331.69 482.451C1328.62 487.438 1326.64 493.013 1325.87 498.813C1325.55 500.868 1324.58 502.767 1323.11 504.237C1321.64 505.708 1319.74 506.673 1317.68 506.995C1316.28 507.554 1314.74 507.666 1313.27 507.314C1311.8 506.963 1310.48 506.165 1309.48 505.031C1308.8 504.078 1308.39 502.956 1308.3 501.787C1308.22 500.618 1308.46 499.447 1308.99 498.404C1310.38 495.214 1311.78 491.941 1313.42 488.914C1326.75 463.552 1340.13 438.245 1353.57 412.992C1356.02 408.93 1358.76 405.048 1361.76 401.375C1362.41 400.396 1363.37 399.662 1364.48 399.291C1365.6 398.92 1366.8 398.934 1367.91 399.329C1370.94 400.884 1371.6 402.602 1372.09 406.283ZM2128.36 393.112C2129.26 397.529 2119.51 400.72 2118.2 403.993C2098.2 452.017 2077.23 499.55 2052.64 545.528C2050.43 549.619 2048.3 553.71 2045.84 557.8C2045.01 559.016 2043.83 559.955 2042.45 560.495C2041.08 561.034 2039.58 561.15 2038.14 560.827C2035.6 560.827 2033.55 558.864 2033.96 556.328C2034.53 553.457 2035.55 550.695 2036.99 548.146C2047.81 525.484 2058.87 502.904 2069.77 480.16C2081.32 455.616 2092.39 430.091 2103.69 405.138C2105.91 400.358 2108.46 395.739 2111.31 391.312C2111.63 390.811 2112.04 390.379 2112.53 390.038C2113.01 389.697 2113.56 389.455 2114.14 389.326C2114.72 389.197 2115.32 389.183 2115.9 389.285C2116.48 389.387 2117.04 389.603 2117.54 389.921C2118.85 390.739 2127.95 392.375 2128.52 393.112H2128.36ZM1545.73 16.3644C1545.29 17.8374 1544.77 19.285 1544.17 20.7004L1504.1 108.322C1500.25 116.503 1496.48 125.339 1492.55 133.765C1490.85 139.402 1487.34 144.321 1482.55 147.755C1481.79 148.101 1480.97 148.281 1480.13 148.281C1479.3 148.281 1478.47 148.101 1477.72 147.755C1476.97 147.347 1476.33 146.773 1475.85 146.078C1475.37 145.382 1475.05 144.584 1474.93 143.747C1475.3 140.272 1476.13 136.861 1477.39 133.602C1480.09 126.566 1482.96 119.53 1486.24 112.658C1500.22 83.1507 1514.32 53.6436 1528.52 24.1366C1530.01 19.1117 1532.85 14.5867 1536.72 11.0465C1538.21 10.2706 1539.94 10.0949 1541.55 10.5557C1542.78 10.9439 1543.85 11.7194 1544.61 12.7664C1545.36 13.8134 1545.75 15.0755 1545.73 16.3644V16.3644ZM1863.76 209.933C1863.19 212.364 1862.42 214.744 1861.46 217.051C1857.12 225.968 1852.7 234.886 1847.94 243.558C1839.75 257.875 1831.55 271.947 1823.36 286.101C1820.29 291.088 1818.31 296.663 1817.54 302.463C1817.22 304.517 1816.25 306.417 1814.78 307.887C1813.31 309.357 1811.41 310.323 1809.35 310.644C1807.95 311.204 1806.4 311.316 1804.94 310.964C1803.47 310.612 1802.15 309.815 1801.15 308.681C1800.47 307.728 1800.06 306.605 1799.97 305.436C1799.89 304.267 1800.13 303.097 1800.66 302.054C1802.05 298.863 1803.45 295.591 1805.09 292.564C1818.42 267.202 1831.8 241.894 1845.24 216.642C1847.69 212.58 1850.43 208.697 1853.43 205.024C1854.08 204.045 1855.04 203.312 1856.15 202.941C1857.27 202.57 1858.47 202.583 1859.58 202.979C1862.61 204.533 1863.27 206.251 1863.76 209.933ZM3367.94 2657.69C3367.85 2658.84 3367.58 2659.97 3367.12 2661.04C3349.09 2689.18 3336.64 2720.19 3321.23 2749.64C3319.69 2752.76 3317.86 2755.72 3315.74 2758.48C3314.84 2759.74 3313.47 2760.6 3311.93 2760.86C3310.4 2761.12 3308.82 2760.76 3307.55 2759.87C3306.53 2759.27 3305.76 2758.34 3305.35 2757.24C3304.95 2756.13 3304.94 2754.92 3305.34 2753.81C3307.22 2747.66 3309.46 2741.62 3312.05 2735.73C3321.81 2715.85 3331.8 2695.97 3341.96 2676.26C3345.35 2670.13 3349.12 2664.22 3353.27 2658.58C3354.18 2657.12 3355.37 2655.85 3356.78 2654.85C3358.19 2653.85 3359.78 2653.15 3361.47 2652.78C3364.75 2652.37 3368.51 2655.23 3367.94 2657.69ZM647.367 668.493C644.991 668.984 640.894 665.711 641.14 663.42C641.378 661.136 641.873 658.886 642.615 656.712C645.155 649.512 647.531 642.313 650.809 635.359C659.63 613.109 670.179 591.582 682.358 570.972C684.985 567.121 687.947 563.507 691.208 560.173C691.707 559.44 692.367 558.831 693.138 558.392C693.909 557.954 694.771 557.697 695.656 557.642C696.542 557.586 697.429 557.734 698.249 558.074C699.068 558.413 699.799 558.935 700.386 559.6C700.975 560.107 701.448 560.735 701.772 561.441C702.096 562.147 702.264 562.914 702.264 563.691C702.264 564.467 702.096 565.235 701.772 565.941C701.448 566.647 700.975 567.275 700.386 567.782C692.433 577.894 686 589.112 681.293 601.079C675.229 613.76 669.984 626.768 664.33 639.531C660.479 648.121 656.627 656.548 652.53 664.975C652.05 665.958 651.321 666.8 650.416 667.417C649.51 668.034 648.46 668.405 647.367 668.493ZM1244.66 2661.69C1243.93 2663.9 1243.27 2666.03 1242.45 2668.16C1228.99 2699.9 1212.09 2730.07 1192.06 2758.15C1191.15 2759.63 1190.08 2761 1188.86 2762.24C1187.89 2763.44 1186.5 2764.21 1184.98 2764.41C1183.45 2764.61 1181.91 2764.21 1180.67 2763.31C1180.03 2762.86 1179.49 2762.3 1179.07 2761.65C1178.66 2761 1178.38 2760.27 1178.25 2759.51C1178.12 2758.74 1178.14 2757.96 1178.32 2757.21C1178.49 2756.46 1178.82 2755.75 1179.27 2755.12C1182.08 2748.07 1185.57 2741.3 1189.68 2734.92C1204.16 2714.29 1216.73 2692.38 1227.21 2669.47C1229.31 2665.32 1231.75 2661.35 1234.5 2657.6C1235.26 2656.69 1236.34 2656.1 1237.52 2655.98C1238.7 2655.86 1239.89 2656.21 1240.81 2656.95C1242.3 2658.36 1243.59 2659.95 1244.66 2661.69V2661.69ZM1709.62 938.884C1709.13 940.111 1708.31 942.892 1707.08 945.429C1695.94 968.582 1684.05 991.407 1671.19 1013.74C1668.6 1018.34 1665.12 1022.37 1660.94 1025.6C1660.4 1026.15 1659.74 1026.57 1659.02 1026.84C1658.3 1027.11 1657.53 1027.23 1656.76 1027.2C1655.99 1027.16 1655.23 1026.96 1654.54 1026.62C1653.85 1026.27 1653.24 1025.79 1652.75 1025.2C1651.58 1024.23 1650.75 1022.91 1650.38 1021.44C1650.01 1019.97 1650.13 1018.42 1650.7 1017.01C1650.93 1016.49 1651.24 1015.99 1651.6 1015.54C1666.03 1000.98 1672.01 981.59 1681.43 964.246C1685.94 956.064 1689.63 947.883 1694.21 939.211C1695.24 937.126 1696.47 935.152 1697.9 933.32C1698.27 932.684 1698.75 932.128 1699.34 931.683C1699.92 931.238 1700.59 930.915 1701.3 930.732C1702.01 930.549 1702.75 930.51 1703.47 930.617C1704.2 930.725 1704.9 930.976 1705.52 931.357C1706.84 932.111 1707.91 933.213 1708.64 934.542C1709.36 935.871 1709.7 937.373 1709.62 938.884ZM3310.58 2258.03C3309.38 2258.06 3308.2 2257.66 3307.26 2256.91C3306.32 2256.17 3305.67 2255.12 3305.42 2253.94C3304.76 2250.47 3305.34 2246.88 3307.06 2243.79C3311.28 2234.15 3316.44 2224.95 3322.46 2216.31C3330.66 2204.36 3338.85 2192.33 3347.05 2180.31C3349.86 2175.84 3353.54 2171.97 3357.86 2168.94C3358.45 2168.5 3359.13 2168.19 3359.85 2168.02C3360.57 2167.86 3361.31 2167.85 3362.04 2167.98C3362.76 2168.12 3363.45 2168.41 3364.06 2168.83C3364.66 2169.24 3365.18 2169.78 3365.56 2170.41C3366.42 2171.23 3366.93 2172.34 3367.01 2173.52C3367.08 2174.7 3366.72 2175.87 3365.97 2176.79C3355.36 2190.75 3345.57 2205.31 3336.64 2220.4C3329.74 2230.54 3323.5 2241.12 3317.95 2252.06C3317.41 2253.65 3316.43 2255.05 3315.13 2256.1C3313.82 2257.16 3312.25 2257.83 3310.58 2258.03V2258.03ZM3585.83 3162.06C3587.64 3162.06 3591 3165.66 3589.93 3168.03C3588.86 3170.66 3587.48 3173.16 3585.83 3175.48C3576.74 3188.24 3567.4 3200.84 3559.53 3214.5C3553.82 3223.94 3548.81 3233.79 3544.53 3243.95C3543.79 3246.15 3542.77 3248.24 3541.5 3250.17C3540.66 3251.38 3539.41 3252.24 3537.98 3252.62C3536.56 3252.99 3535.05 3252.85 3533.72 3252.22C3532.65 3251.73 3531.77 3250.9 3531.23 3249.87C3530.68 3248.83 3530.49 3247.65 3530.68 3246.49C3531.61 3238.37 3534.17 3230.52 3538.22 3223.42C3548.22 3205.02 3559.76 3187.51 3572.72 3171.06C3574.13 3168.71 3576.04 3166.69 3578.3 3165.14C3580.56 3163.59 3583.13 3162.54 3585.83 3162.06V3162.06ZM1333.08 1335.51C1333.33 1338.66 1332.58 1341.8 1330.95 1344.51C1318.58 1366.85 1306.37 1389.26 1294.08 1411.68C1292.62 1414.81 1290.77 1417.75 1288.59 1420.43C1287.72 1421.72 1286.4 1422.65 1284.88 1423.03C1283.37 1423.4 1281.77 1423.21 1280.39 1422.48C1279.07 1421.84 1278.02 1420.74 1277.45 1419.38C1276.87 1418.03 1276.81 1416.51 1277.28 1415.11C1278.49 1411.23 1280.08 1407.48 1282.03 1403.91C1290.94 1387.54 1300.03 1371.35 1309.32 1355.31C1312.76 1349.26 1316.45 1343.37 1320.3 1337.56C1321.64 1335.66 1323.37 1334.07 1325.38 1332.89C1326.09 1332.47 1326.87 1332.2 1327.69 1332.08C1328.51 1331.97 1329.34 1332.02 1330.13 1332.24C1331.77 1332.73 1332.43 1334.69 1333.08 1335.51ZM2553.41 168.372C2552.67 170.254 2552.26 171.972 2551.52 173.526C2538.33 198.807 2525.22 224.087 2511.86 249.285C2510.06 252.721 2508.01 256.975 2502.77 255.748C2499.16 254.93 2498.1 250.103 2500.64 243.64C2503.68 235.485 2507.18 227.509 2511.12 219.751C2518.34 205.761 2525.96 192.016 2533.66 178.353C2536.61 173.361 2540.01 168.651 2543.82 164.282C2544.73 163.53 2545.88 163.119 2547.06 163.119C2548.24 163.119 2549.38 163.53 2550.29 164.282C2551.52 165.492 2552.57 166.869 2553.41 168.372ZM3822 3597.88C3822.13 3599.35 3821.96 3600.84 3821.5 3602.25C3821.03 3603.65 3820.28 3604.95 3819.29 3606.06C3811.1 3618 3802.5 3629.95 3793.97 3641.73C3785.78 3651.56 3778.51 3662.14 3772.26 3673.31C3772.01 3674.12 3771.59 3674.87 3771.02 3675.5C3770.46 3676.14 3769.77 3676.65 3768.99 3677C3768.22 3677.35 3767.38 3677.53 3766.53 3677.52C3765.68 3677.52 3764.84 3677.34 3764.06 3676.99C3763.14 3676.53 3762.32 3675.88 3761.66 3675.09C3761 3674.3 3760.5 3673.38 3760.21 3672.39C3759.92 3671.4 3759.83 3670.36 3759.96 3669.33C3760.09 3668.31 3760.42 3667.32 3760.95 3666.43C3766.85 3657.11 3773 3647.86 3779.39 3638.78C3789.38 3624.46 3799.71 3610.31 3809.87 3596.16C3810.53 3595.17 3811.33 3594.29 3812.25 3593.54C3813.04 3592.71 3814.09 3592.16 3815.23 3591.98C3816.38 3591.8 3817.54 3592.01 3818.56 3592.56C3819.53 3593.09 3820.35 3593.85 3820.95 3594.78C3821.56 3595.71 3821.91 3596.77 3822 3597.88V3597.88ZM2350.27 112.658C2350.25 113.946 2350 115.221 2349.53 116.421C2346.69 123.426 2343.18 130.139 2339.04 136.465C2326.75 152.828 2316.26 170.09 2305.52 187.353C2304.59 188.789 2303.54 190.156 2302.41 191.443C2300.69 193.489 2296.35 192.18 2295.36 189.48C2294.62 187.268 2294.41 184.91 2294.77 182.604C2295.12 180.297 2296.03 178.11 2297.41 176.226C2304.38 164.936 2311.01 153.319 2318.14 142.029C2324.29 132.129 2330.85 122.557 2337.24 112.903C2338.67 110.34 2340.96 108.368 2343.71 107.34C2344.5 107.184 2345.32 107.203 2346.1 107.397C2346.88 107.592 2347.61 107.955 2348.24 108.463C2348.86 108.971 2349.37 109.61 2349.72 110.335C2350.07 111.06 2350.26 111.853 2350.27 112.658V112.658ZM1093.15 2109.13C1093.08 2110.46 1092.77 2111.76 1092.25 2112.98C1079.46 2135.23 1066.57 2157.43 1053.57 2179.57C1053.26 2180.04 1052.9 2180.48 1052.5 2180.88C1051.83 2181.85 1050.86 2182.58 1049.74 2182.96C1048.62 2183.34 1047.41 2183.36 1046.28 2183.01C1044.86 2182.57 1043.63 2181.67 1042.78 2180.46C1041.93 2179.24 1041.52 2177.78 1041.6 2176.3C1041.79 2174 1042.4 2171.75 1043.41 2169.67C1046.44 2163.37 1049.31 2156.91 1052.91 2150.94C1061.11 2138.01 1069.3 2125.25 1077.5 2112.49C1079.51 2108.89 1082.61 2106.03 1086.35 2104.3C1087.11 2104.15 1087.9 2104.16 1088.67 2104.32C1089.43 2104.48 1090.15 2104.8 1090.79 2105.25C1091.43 2105.71 1091.96 2106.28 1092.37 2106.95C1092.78 2107.62 1093.04 2108.36 1093.15 2109.13ZM3381.79 194.061C3381.41 195.704 3380.77 197.277 3379.91 198.725C3375.23 205.352 3370.32 211.815 3365.56 218.442C3355.73 232.104 3345.98 245.849 3336.15 259.348C3334.81 261.233 3333.14 262.867 3331.23 264.175C3330.27 264.851 3329.1 265.15 3327.93 265.014C3326.77 264.878 3325.7 264.317 3324.92 263.438C3324.36 262.803 3323.94 262.063 3323.67 261.263C3323.41 260.462 3323.3 259.617 3323.36 258.775C3324.15 255.407 3325.51 252.198 3327.38 249.285C3340.08 231.286 3353.03 213.369 3366.06 195.534C3368.21 192.024 3371.51 189.365 3375.4 188.007C3376.24 187.878 3377.1 187.943 3377.91 188.196C3378.72 188.45 3379.46 188.886 3380.08 189.47C3380.7 190.054 3381.17 190.772 3381.47 191.568C3381.76 192.364 3381.87 193.217 3381.79 194.061ZM3985.23 2960.39C3984.45 2960.4 3983.68 2960.24 3982.97 2959.92C3982.26 2959.61 3981.62 2959.14 3981.1 2958.56C3980.58 2957.98 3980.19 2957.3 3979.96 2956.55C3979.72 2955.81 3979.65 2955.03 3979.74 2954.26C3982.51 2947.18 3986.66 2940.73 3991.95 2935.28C4003.42 2922.02 4013.26 2907.62 4023.75 2893.71C4025.49 2891.39 4027.43 2889.23 4029.56 2887.25C4030.21 2886.66 4031.06 2886.33 4031.94 2886.33C4032.82 2886.33 4033.67 2886.66 4034.32 2887.25C4035.61 2888.38 4036.55 2889.86 4037.02 2891.51C4037.13 2893.84 4036.77 2896.18 4035.95 2898.37C4035.14 2900.57 4033.88 2902.57 4032.27 2904.27C4022.11 2918.42 4011.78 2932.58 4001.21 2946.4C3997.45 2950.87 3993.34 2955.02 3988.92 2958.84C3987.79 2959.56 3986.54 2960.09 3985.23 2960.39V2960.39ZM2334.45 672.502C2333.31 672.329 2332.25 671.801 2331.43 670.993C2330.6 670.185 2330.06 669.139 2329.86 668.002C2329.6 664.523 2330.22 661.033 2331.66 657.857C2336.2 645.842 2341.54 634.144 2347.64 622.841C2350.59 616.542 2353.71 610.242 2357.07 604.106C2358.37 601.529 2360.09 599.18 2362.15 597.152C2363.01 596.324 2364.13 595.816 2365.32 595.712C2366.52 595.607 2367.71 595.914 2368.7 596.58C2369.71 597.145 2370.5 598.037 2370.93 599.108C2371.36 600.179 2371.41 601.365 2371.08 602.47C2370.85 603.623 2370.49 604.748 2370.02 605.824C2360.67 625.868 2351.82 646.322 2341.99 666.039C2340.51 669.229 2338.79 672.42 2334.45 672.502ZM4165.51 774.767C4164.81 776.946 4163.84 779.033 4162.64 780.985C4157.81 787.612 4152.56 793.912 4147.65 800.457C4141.44 808.234 4136.08 816.655 4131.67 825.573C4130.43 828.211 4128.83 830.662 4126.92 832.854C4126.09 833.701 4125 834.242 4123.82 834.391C4122.65 834.54 4121.45 834.286 4120.44 833.673C4119.31 833.33 4118.34 832.582 4117.72 831.571C4117.1 830.56 4116.87 829.357 4117.08 828.191C4118.17 823.047 4119.94 818.069 4122.33 813.383C4131.75 798.595 4142.56 784.733 4154.61 771.986C4155.32 771.059 4156.23 770.294 4157.26 769.744C4158.29 769.193 4159.43 768.87 4160.59 768.795C4162 769.031 4163.27 769.766 4164.17 770.863C4165.08 771.961 4165.55 773.347 4165.51 774.767ZM3509.46 859.034C3508.72 862.107 3507.73 865.116 3506.51 868.034C3499.22 884.396 3490.12 899.123 3484.38 915.649C3483.99 917.066 3483.27 918.369 3482.27 919.451C3481.27 920.532 3480.03 921.36 3478.65 921.867C3476.99 922.397 3475.2 922.25 3473.65 921.458C3472.42 920.721 3470.95 918.512 3471.27 917.285C3472.51 911.689 3474.23 906.213 3476.44 900.923C3482.25 887.505 3488.48 874.333 3494.63 861.162C3495.92 858.542 3497.46 856.05 3499.22 853.717C3499.79 852.71 3500.68 851.918 3501.74 851.461C3502.81 851.003 3503.99 850.905 3505.12 851.18C3508.39 852.162 3508.97 855.107 3509.46 859.034ZM2026.58 666.857C2026.31 668.816 2025.82 670.738 2025.11 672.583C2017.49 687.687 2010.79 703.232 2005.03 719.135C2004.53 720.212 2003.87 721.205 2003.07 722.08C2002.4 723.034 2001.43 723.742 2000.32 724.097C1999.21 724.451 1998.02 724.433 1996.92 724.044C1995.8 723.681 1994.8 723.015 1994.03 722.119C1993.26 721.224 1992.76 720.135 1992.58 718.971C1992.37 716.675 1992.65 714.361 1993.4 712.181C1999.49 695.152 2007.14 678.72 2016.26 663.093C2016.48 662.554 2016.81 662.065 2017.23 661.654C2017.64 661.243 2018.13 660.917 2018.67 660.697C2019.21 660.476 2019.79 660.365 2020.38 660.369C2020.96 660.373 2021.54 660.492 2022.08 660.721C2024.45 661.457 2025.68 663.502 2026.58 666.857ZM511.339 2397.6C511.57 2398.72 511.565 2399.87 511.325 2400.98C511.085 2402.09 510.616 2403.14 509.946 2404.07C503.554 2415.85 497.162 2427.63 490.607 2439.25C489.37 2441.19 487.609 2442.75 485.526 2443.75C484.728 2444.05 483.872 2444.17 483.021 2444.1C482.171 2444.02 481.347 2443.76 480.609 2443.34C479.912 2442.86 479.334 2442.22 478.922 2441.49C478.51 2440.75 478.274 2439.93 478.233 2439.08C478.486 2436.78 479.066 2434.52 479.954 2432.37C484.05 2420.21 490.112 2408.79 497.9 2398.58C499.307 2396.75 501.027 2395.17 502.98 2393.92C503.762 2393.54 504.618 2393.34 505.487 2393.32C506.357 2393.3 507.219 2393.48 508.015 2393.83C508.811 2394.18 509.52 2394.7 510.094 2395.35C510.668 2396 511.093 2396.77 511.339 2397.6V2397.6Z" fill="black"/>
<path d="M2228.41 3494.14C2232.34 3497.49 2235.07 3502.02 2236.2 3507.06C2248.08 3541.91 2260.78 3576.77 2264.96 3613.42C2267.91 3633.16 2267.33 3653.27 2263.24 3672.81C2260.08 3687.17 2253.85 3700.67 2244.98 3712.41C2236.12 3724.14 2224.82 3733.82 2211.86 3740.8C2200.57 3747.08 2188.85 3752.55 2176.79 3757.16C2117.13 3779.99 2057.31 3802.32 1997.66 3825.07C1945.54 3844.69 1891.52 3858.87 1836.47 3867.36C1809.89 3872.34 1782.65 3872.78 1755.92 3868.67C1739.09 3865.81 1722.82 3860.29 1707.73 3852.31C1699.93 3848.37 1693.13 3842.72 1687.82 3835.79C1682.51 3828.85 1678.84 3820.81 1677.07 3812.27C1675.31 3803.72 1675.5 3794.88 1677.63 3786.42C1679.76 3777.96 1683.78 3770.08 1689.38 3763.38C1694.19 3757.47 1699.51 3752 1705.28 3747.02C1716.17 3737.28 1727.48 3727.96 1738.55 3718.38C1769.22 3691.86 1795.59 3660.76 1816.72 3626.18C1836.19 3594.79 1859.36 3565.84 1885.72 3539.95L1897.11 3528.99C1908.75 3518.18 1922.55 3509.96 1937.61 3504.88C1952.67 3499.8 1968.64 3497.98 1984.46 3499.54C1986.76 3499.54 1989.13 3500.03 1991.43 3500.35C1994.61 3500.56 1997.61 3501.86 1999.93 3504.04C2002.25 3506.22 2003.74 3509.14 2004.13 3512.3C2007.31 3525.1 2013.48 3536.96 2022.14 3546.92C2030.8 3556.87 2041.7 3564.64 2053.95 3569.57C2061.74 3573.39 2070.01 3576.14 2078.53 3577.75C2106.23 3583.32 2134.8 3582.82 2162.28 3576.28C2179.95 3571.49 2195.78 3561.55 2207.76 3547.72C2219.24 3535.71 2225.77 3519.82 2226.04 3503.22C2226.12 3500.89 2226.37 3498.56 2226.77 3496.26C2227.18 3495.94 2227.67 3495.44 2228.41 3494.14Z" fill="#0FB9EF"/>
<path d="M1677.5 3849.21C1676.02 3851.5 1673.56 3851.25 1671.35 3851.5C1639.88 3854.77 1608.42 3858.21 1576.87 3861.23C1518.95 3866.06 1460.77 3866.96 1402.74 3863.93C1366.38 3863.57 1330.1 3860.37 1294.24 3854.36C1274.03 3850.77 1254.3 3844.81 1235.49 3836.61C1228.26 3833.83 1222.05 3828.94 1217.66 3822.57C1213.27 3816.21 1210.92 3808.66 1210.9 3800.94C1210.76 3790.87 1213.61 3780.99 1219.1 3772.55C1231.04 3752.12 1249.55 3736.32 1271.62 3727.71C1282.63 3723.66 1293.92 3720.38 1305.38 3717.9C1344.6 3709.15 1380.24 3688.73 1407.57 3659.32C1423.06 3642.96 1438.38 3627.09 1453.7 3610.97C1480.75 3582.42 1508.2 3554.44 1537.37 3528.01C1546.38 3519.61 1556.21 3512.13 1566.71 3505.68C1582.29 3496.11 1600.29 3491.22 1618.58 3491.6C1630.32 3492.25 1641.76 3495.49 1652.09 3501.09C1655.76 3503.13 1658.64 3506.33 1660.29 3510.17C1665.61 3519.17 1671.27 3528.09 1676.68 3537.25C1677.93 3539.57 1679.64 3541.62 1681.69 3543.28C1683.75 3544.93 1686.11 3546.17 1688.64 3546.91C1724.94 3557.95 1761.74 3564.17 1799.51 3555.09C1813.84 3551.78 1827.34 3545.57 1839.17 3536.85C1843.85 3533.76 1847.72 3529.61 1850.46 3524.73C1853.2 3519.84 1854.72 3514.38 1854.91 3508.78C1855.02 3505.85 1855.3 3502.93 1855.73 3500.03C1856.63 3491.85 1858.84 3490.46 1865.48 3494.06C1870.14 3496.53 1874.56 3499.43 1878.67 3502.73C1890.8 3512.71 1890.8 3515.98 1879.41 3527.27C1850.39 3555.52 1824.94 3587.2 1803.61 3621.6C1781.98 3656.74 1754.68 3688.06 1722.81 3714.3C1710.19 3724.77 1697.82 3735.65 1685.94 3747.02C1677.34 3755.09 1670.8 3765.09 1666.85 3776.19C1662.9 3787.29 1661.67 3799.16 1663.24 3810.84C1663.92 3822.01 1667.63 3832.78 1673.97 3842.01C1675.61 3843.89 1677.99 3845.93 1677.5 3849.21Z" fill="#0FB9EF"/>
<path d="M3561.41 3498.23C3553.97 3483.57 3544.48 3470.04 3533.22 3458.06C3515.55 3439.21 3495.69 3422.54 3474.05 3408.4C3445.21 3389.33 3414.81 3372.72 3383.18 3358.74C3300.49 3322.72 3214.62 3294.45 3126.69 3274.31C3089.73 3265.22 3052.2 3258.52 3016.15 3245.83C3007.19 3243.05 2998.08 3240.81 2988.86 3239.13C2979.52 3237.16 2979.27 3236.83 2983.61 3227.75C2984.6 3225.63 2985.66 3223.58 2986.73 3221.45C3010.63 3171.92 3031.75 3121.09 3049.99 3069.2C3051.41 3065.38 3052.34 3061.39 3052.78 3057.34C3052.8 3056.16 3052.42 3055.01 3051.68 3054.08C3050.95 3053.15 3049.92 3052.51 3048.76 3052.27C3047.67 3051.79 3046.46 3051.68 3045.3 3051.96C3044.14 3052.24 3043.11 3052.9 3042.37 3053.82C3040.51 3056.79 3038.98 3059.94 3037.78 3063.23C3031.63 3079.59 3025.65 3095.95 3019.34 3112.32C2997.41 3171 2970.35 3227.64 2938.46 3281.59C2920.02 3312.24 2897.84 3340.5 2872.41 3365.69C2844.16 3394.03 2809.76 3415.5 2771.87 3428.44C2727.21 3444.81 2680.13 3453.66 2632.56 3454.62C2592.69 3456.32 2552.76 3453.57 2513.5 3446.44C2487.77 3440.79 2462.12 3434.9 2436.14 3430.08C2421.78 3427.23 2407.79 3422.78 2394.43 3416.82C2368.54 3405.94 2344.44 3391.22 2318.96 3379.27C2318.3 3379.27 2318.06 3377.72 2317.57 3376.9C2323.16 3373.64 2329.39 3371.6 2335.84 3370.93C2358.05 3364.14 2356.82 3367.41 2359.52 3340.98C2359.52 3339.76 2359.52 3338.61 2359.52 3337.46C2359.52 3315.21 2359.52 3292.88 2358.62 3270.71C2356.41 3191.02 2352.06 3111.5 2347.07 3031.98C2346.16 3017.9 2344.53 3003.91 2343.79 2989.92C2339.96 2917.33 2336.17 2844.79 2332.4 2772.3C2331.74 2760.03 2330.59 2747.76 2329.45 2735.57C2329 2731.49 2328.18 2727.47 2326.99 2723.54C2325.76 2719.37 2322.56 2717.16 2319.45 2717.9C2316.34 2718.63 2315.19 2721.58 2315.11 2724.61C2315.02 2727.63 2315.11 2730.41 2315.68 2733.36C2317.97 2768.46 2319.86 2803.56 2322.81 2838.57C2325.27 2867.78 2325.92 2897.07 2326.99 2926.27C2327.89 2949.67 2328.38 2973.23 2330.68 2996.47C2337.4 3065.36 2338.87 3134.49 2342.89 3203.46C2345.43 3246.73 2345.75 3290.09 2347.07 3333.46C2347.07 3337.55 2347.07 3341.64 2347.07 3345.73C2347.25 3348.06 2346.56 3350.37 2345.14 3352.23C2343.72 3354.09 2341.66 3355.35 2339.36 3355.79C2324.22 3360.41 2308.7 3363.69 2292.98 3365.61C2258.56 3369.45 2223.98 3371.42 2189.49 3373.79C2110.89 3379.96 2031.86 3369.76 1957.42 3343.85C1953.57 3342.45 1949.88 3340.74 1946.11 3339.1C1944.17 3338.37 1942.48 3337.09 1941.26 3335.42C1940.04 3333.75 1939.33 3331.76 1939.23 3329.69C1939.23 3326.75 1938.65 3323.88 1938.41 3320.94C1935.78 3291.81 1933.08 3262.61 1930.21 3233.48C1927.1 3199.04 1923.66 3164.68 1920.87 3130.23C1917.84 3091.13 1915.22 3051.94 1912.68 3012.75C1910.13 2973.56 1907.51 2933.23 1907.51 2893.39C1907.51 2809.06 1909.48 2724.74 1913.41 2640.42C1915.41 2594.2 1920.34 2548.16 1928.16 2502.57C1934.44 2465 1944.24 2428.11 1957.42 2392.37C1978.23 2337.31 2016.09 2300.24 2074.84 2286.83C2087.46 2283.96 2100 2281.1 2112.54 2277.99C2142.97 2271.38 2174.29 2269.88 2205.22 2273.57C2241.43 2277.58 2276.69 2287.76 2309.45 2303.68C2375.26 2333.87 2433.57 2378.21 2480.23 2433.52C2490.47 2445.54 2500.71 2457.65 2511.04 2469.68C2569.27 2536.64 2622.08 2608.12 2668.95 2683.45C2694.35 2724.85 2720.16 2766.08 2746.87 2806.66C2770.48 2843 2791.8 2880.76 2810.71 2919.73C2817.82 2933.84 2823.84 2948.48 2828.74 2963.5C2829.17 2965.79 2829.97 2968.01 2831.11 2970.04C2832.34 2971.27 2833.97 2971.99 2835.7 2972.09C2836.29 2972.19 2836.88 2972.18 2837.46 2972.05C2838.04 2971.92 2838.58 2971.68 2839.06 2971.34C2839.54 2970.99 2839.95 2970.56 2840.26 2970.05C2840.57 2969.55 2840.78 2968.99 2840.87 2968.41C2841.39 2965.71 2841.39 2962.93 2840.87 2960.23C2839.42 2954.66 2837.61 2949.19 2835.46 2943.86C2824.67 2917.91 2812.41 2892.59 2798.75 2868.02C2797.03 2864.83 2793.34 2861.89 2795.22 2857.55C2796.28 2856.94 2797.48 2856.62 2798.71 2856.62C2799.93 2856.62 2801.13 2856.94 2802.19 2857.55C2820.3 2864.34 2838.49 2870.81 2856.35 2878.17C2928.61 2906.84 2993.06 2952.17 3044.42 3010.46C3045.65 3011.77 3046.71 3013.16 3047.94 3014.39C3052.78 3019.13 3058.1 3018.64 3060.56 3012.42C3064.1 3003.78 3067.01 2994.9 3069.25 2985.83C3075.99 2954.29 3078.74 2922.02 3077.44 2889.79C3075.39 2820.68 3068.6 2751.8 3057.12 2683.62C3045.97 2611.87 3037.21 2539.87 3030.08 2467.55C3027.21 2439.08 3024.01 2410.28 3018.44 2382.3C3007.67 2325.39 2993.63 2269.15 2976.4 2213.85C2968.83 2187.46 2958.91 2161.81 2946.74 2137.19L2991.32 2110.68C3027.06 2090.56 3061.56 2068.32 3094.65 2044.09C3118.41 2025.93 3141.52 2006.86 3163.32 1986.82C3196.1 1956.3 3226.99 1924.48 3259.44 1893.96C3278.29 1875.5 3295.82 1855.74 3311.89 1834.81C3331.74 1809.37 3345.73 1779.87 3352.86 1748.42C3356.28 1736.55 3357.47 1724.15 3356.38 1711.85C3350.72 1665.42 3329.66 1622.22 3296.56 1589.13C3250.54 1542.13 3197.59 1502.43 3139.56 1471.4C3094.98 1447.93 3048.62 1428.01 3000.9 1411.84C2965.24 1398.79 2928.46 1389.01 2891.02 1382.63C2860.86 1377.97 2830.79 1372.98 2800.88 1367.91C2759.25 1360.87 2717.62 1353.59 2675.66 1349.17C2664.6 1347.95 2653.46 1347.37 2642.31 1346.55C2638.8 1346 2635.21 1346.61 2632.07 1348.27C2631.45 1348.65 2630.93 1349.16 2630.54 1349.76C2630.14 1350.36 2629.89 1351.05 2629.8 1351.76C2629.7 1352.47 2629.77 1353.2 2629.99 1353.88C2630.22 1354.57 2630.59 1355.2 2631.09 1355.72C2631.99 1356.45 2632.89 1357.68 2633.87 1357.76C2641.66 1358.25 2642.8 1363.49 2643.21 1369.87C2644.78 1385.57 2642.92 1401.43 2637.76 1416.34C2632.59 1431.26 2624.25 1444.88 2613.3 1456.26C2611.23 1458.31 2609.44 1460.62 2607.98 1463.14C2607.47 1464.22 2607.39 1465.45 2607.76 1466.59C2608.12 1467.73 2608.9 1468.69 2609.94 1469.27C2610.67 1469.7 2611.47 1469.97 2612.3 1470.07C2613.13 1470.17 2613.98 1470.09 2614.78 1469.85C2621.47 1466.16 2627.22 1460.98 2631.58 1454.71C2649.33 1431.78 2658.42 1403.33 2657.23 1374.37C2657.23 1369.87 2655.1 1365.13 2658.62 1359.89C2677.3 1362.26 2696.4 1364.23 2715.41 1367.17C2757.12 1373.55 2798.83 1380.1 2840.46 1387.05C2868.73 1391.8 2897.16 1396.3 2925.11 1402.76C2980.24 1416.57 3033.98 1435.44 3085.64 1459.13C3145.78 1485.7 3201.63 1521.08 3251.33 1564.09C3279.43 1586.36 3303.23 1613.56 3321.56 1644.35C3333 1666.15 3340.34 1689.86 3343.19 1714.3C3343.99 1720.71 3343.69 1727.22 3342.29 1733.53C3336.88 1764.8 3324.29 1794.4 3305.49 1820C3288.77 1842.59 3270.24 1863.8 3250.1 1883.41C3216.75 1914.74 3184.54 1947.63 3151.77 1978.72C3103.33 2023.31 3049.87 2062.13 2992.46 2094.4C2954.28 2116.25 2916.42 2138.42 2879.46 2162.31C2869.14 2168.93 2858.32 2174.83 2847.75 2181.12C2844.39 2183.17 2842.5 2187.26 2843.98 2189.8C2844.94 2191.26 2846.38 2192.35 2848.06 2192.86C2849.74 2193.37 2851.54 2193.27 2853.16 2192.58C2859.34 2190.84 2865.18 2188.07 2870.45 2184.4C2884.87 2175.48 2899.13 2166.15 2913.55 2157.15C2939.04 2141.28 2934.37 2137.03 2947.64 2169.34C2948.46 2171.47 2949.03 2173.76 2949.77 2176.05C2967.57 2227.46 2982.37 2279.85 2994.1 2332.97C2999.27 2357.02 3005.49 2380.99 3008.69 2405.29C3015.57 2458.06 3020.65 2511.16 3026.96 2564.09C3030.57 2594.85 3035.16 2625.61 3039.25 2656.29C3044.17 2691.64 3049.99 2726.9 3054.41 2762.65C3059.41 2802.16 3062.61 2841.93 3064 2881.77C3065.5 2912.79 3063.49 2943.89 3058.02 2974.46C3057.6 2981.98 3055.35 2989.28 3051.46 2995.73C3047.61 2995.73 3046.3 2992.62 3044.34 2990.58C3006.13 2949.91 2961.4 2915.87 2911.99 2889.87C2874.21 2869.84 2834.41 2853.85 2793.26 2842.17C2790.39 2841.76 2787.64 2840.75 2785.18 2839.21C2782.73 2837.68 2780.62 2835.65 2779 2833.25C2754.41 2793.16 2727.95 2754.63 2703.69 2714.54C2672.03 2661.14 2637.57 2609.44 2600.44 2559.67C2562.83 2510.09 2522.92 2462.48 2481.7 2416.01C2427.79 2354.42 2359.19 2307.4 2282.25 2279.3C2234.79 2261.65 2183.76 2255.73 2133.52 2262.04C2107.44 2265.91 2081.69 2271.74 2056.49 2279.46C2026.34 2287.96 1999.54 2305.49 1979.71 2329.7C1977.49 2332.31 1975.94 2335.67 1972.17 2336.24C1967.59 2329.45 1962.67 2322.89 1957.42 2316.61C1938.42 2295.68 1916.31 2277.8 1891.86 2263.59C1844.18 2235.62 1790.67 2219.01 1735.51 2215.08C1721.32 2214.18 1707.69 2209.21 1696.26 2200.76C1655.29 2172.78 1614.31 2144.15 1574.32 2114.37C1520.75 2074.53 1473.46 2026.91 1434.03 1973.08C1406.2 1935.32 1384.82 1893.21 1370.77 1848.47C1360.49 1816.45 1359.58 1782.17 1368.15 1749.64C1382.16 1696.76 1409.21 1648.22 1446.82 1608.44C1480.99 1571.38 1516.31 1535.38 1554 1502.08C1571.13 1486.94 1587.27 1470.66 1604.89 1456.02C1631.03 1434.34 1657.99 1413.64 1684.62 1392.45C1691.92 1386.56 1699.13 1380.59 1706.17 1374.37C1708.32 1372.43 1710.08 1370.1 1711.34 1367.5C1711.69 1366.37 1711.71 1365.17 1711.39 1364.04C1711.07 1362.91 1710.42 1361.89 1709.53 1361.12C1708.74 1360.25 1707.67 1359.69 1706.5 1359.52C1705.33 1359.36 1704.15 1359.6 1703.14 1360.22C1700.67 1361.8 1698.32 1363.55 1696.09 1365.45L1670.12 1386.48C1640.95 1410.04 1610.71 1432.46 1582.76 1457.41C1532.94 1502 1484.43 1547.9 1438.95 1597.06C1405.27 1633.17 1379.19 1675.65 1362.25 1721.99C1345.27 1766.7 1344.68 1815.98 1360.61 1861.07C1374.38 1901.58 1393.95 1939.89 1418.71 1974.79C1459.74 2032.11 1509.51 2082.66 1566.21 2124.59C1608.09 2155.76 1650.37 2186.2 1696.5 2215.81C1685.03 2220.56 1675.69 2223.99 1666.84 2228.17C1620.72 2251.09 1583.92 2289.17 1562.61 2336C1548.25 2366.14 1537.65 2397.93 1531.06 2430.65C1522 2478.45 1516.19 2526.8 1513.69 2575.38C1510.49 2620.95 1508.11 2666.52 1505.49 2712.17C1501.39 2781.22 1499.84 2850.27 1501.31 2919.4C1502.21 2962.19 1503.69 3004.9 1506.72 3047.6C1510 3093.17 1510.57 3138.91 1515.65 3184.31C1516.47 3192.49 1516.14 3192.49 1507.46 3193.72L1423.63 3203.54C1369.46 3209.75 1315.13 3215.32 1261.13 3222.44C1196.01 3231.05 1131.11 3241.09 1066.43 3252.54C967.194 3270.05 868.614 3290.83 771.427 3316.93C689.197 3338.2 608.513 3365.05 529.935 3397.27C477.725 3418.26 427.761 3444.43 380.796 3475.4C357.283 3490.95 335.619 3509.12 316.223 3529.56C302.834 3543.55 291.62 3559.46 282.953 3576.77C274.095 3594.08 269.717 3613.33 270.218 3632.76C270.719 3652.2 276.083 3671.2 285.821 3688.03C294.412 3703.4 305.144 3717.48 317.698 3729.84C332.635 3744.74 348.961 3758.2 366.455 3770.01C394.115 3788.79 423.308 3805.21 453.727 3819.1C525.339 3851.28 599.614 3877.21 675.716 3896.57C743.074 3914.65 811.253 3929.3 879.922 3941.57C927.205 3949.75 974.651 3957.93 1022.34 3963.99C1052.01 3967.75 1081.59 3972.17 1111.34 3975.36C1150.34 3979.86 1189.43 3984.19 1228.52 3987.87C1263.59 3991.15 1298.66 3993.85 1333.82 3996.06C1384.7 3999.41 1435.67 4002.93 1486.64 4005.14C1537.61 4007.35 1589.81 4008.33 1641.44 4009.88C1763.54 4013.4 1885.55 4010.95 2007.57 4006.69C2093.23 4003.75 2178.72 3998.92 2264.06 3992.21C2327.26 3987.3 2390.36 3981.47 2453.35 3974.7C2513.99 3968.27 2574.49 3960.71 2634.86 3952.04C2708.55 3941.46 2781.95 3929.05 2855.04 3914.82C2945.18 3897.14 3035.32 3876.61 3123.33 3851C3200.03 3829.5 3275.1 3802.55 3347.94 3770.33C3392.5 3750.78 3435.07 3726.97 3475.04 3699.24C3497.17 3683.76 3517.39 3665.72 3535.27 3645.49C3547.36 3631.9 3557.33 3616.56 3564.85 3600C3572.08 3583.9 3575.53 3566.35 3574.93 3548.72C3574.33 3531.08 3569.71 3513.81 3561.41 3498.23V3498.23ZM2011.09 3383.03C2012.16 3375.67 2012.98 3374.85 2020.02 3376.33C2035.51 3379.43 2051 3381.97 2066.73 3384.02C2104.48 3389.1 2142.63 3390.39 2180.64 3387.86C2182.44 3387.86 2184.16 3387.86 2185.88 3387.86C2193.25 3387.86 2194.07 3387.86 2196.2 3394.49C2198.57 3400.49 2200.46 3406.68 2201.86 3412.98C2206.31 3432.33 2209.3 3452 2210.79 3471.8C2210.79 3482.27 2213.74 3492.58 2213.41 3503.22C2213.16 3516.19 2208.04 3528.6 2199.07 3537.99C2186.23 3552.68 2168.68 3562.45 2149.41 3565.64C2123.91 3570.04 2097.75 3568.93 2072.71 3562.37C2059.65 3558.91 2047.61 3552.34 2037.64 3543.22C2025.83 3532.58 2018.21 3518.07 2016.17 3502.32C2012.98 3479.65 2011.01 3457.07 2009.86 3435.23C2009.14 3417.82 2009.55 3400.39 2011.09 3383.03V3383.03ZM2053.95 3569.81C2061.73 3573.64 2070 3576.39 2078.53 3577.99C2106.23 3583.56 2134.8 3583.06 2162.28 3576.52C2179.95 3571.73 2195.78 3561.79 2207.76 3547.97C2219.24 3535.95 2225.76 3520.06 2226.03 3503.46C2226.12 3501.16 2226.36 3498.86 2226.77 3496.59C2226.77 3496.02 2227.26 3495.53 2228 3494.22C2231.93 3497.57 2234.66 3502.11 2235.78 3507.14C2247.67 3542 2260.37 3576.85 2264.55 3613.5C2267.5 3633.24 2266.92 3653.36 2262.83 3672.9C2259.66 3687.25 2253.44 3700.76 2244.57 3712.49C2235.7 3724.22 2224.4 3733.91 2211.45 3740.88C2200.16 3747.16 2188.44 3752.63 2176.37 3757.24C2116.72 3780.07 2056.9 3802.41 1997.24 3825.15C1945.12 3844.78 1891.11 3858.95 1836.06 3867.45C1809.47 3872.42 1782.24 3872.86 1755.5 3868.76C1738.67 3865.89 1722.41 3860.37 1707.32 3852.39C1699.54 3848.42 1692.76 3842.74 1687.48 3835.78C1682.2 3828.82 1678.57 3820.76 1676.84 3812.21C1675.12 3803.65 1675.35 3794.82 1677.52 3786.36C1679.69 3777.91 1683.74 3770.05 1689.38 3763.38C1694.19 3757.47 1699.5 3752 1705.27 3747.02C1716.17 3737.28 1727.48 3727.96 1738.54 3718.38C1769.21 3691.86 1795.58 3660.76 1816.72 3626.18C1836.19 3594.79 1859.35 3565.84 1885.72 3539.95L1897.11 3528.99C1908.74 3518.18 1922.55 3509.96 1937.61 3504.88C1952.67 3499.8 1968.64 3497.98 1984.46 3499.54C1986.75 3499.54 1989.13 3500.03 1991.42 3500.35C1994.6 3500.56 1997.61 3501.86 1999.93 3504.04C2002.25 3506.22 2003.73 3509.14 2004.13 3512.3C2007.27 3525.14 2013.42 3537.06 2022.09 3547.06C2030.75 3557.06 2041.67 3564.86 2053.95 3569.81V3569.81ZM1660.2 3510.17C1665.53 3519.17 1671.18 3528.09 1676.59 3537.25C1677.85 3539.57 1679.55 3541.62 1681.61 3543.27C1683.66 3544.93 1686.02 3546.16 1688.56 3546.9C1724.86 3557.95 1761.65 3564.17 1799.43 3555.09C1813.76 3551.78 1827.26 3545.57 1839.09 3536.84C1843.77 3533.76 1847.64 3529.6 1850.37 3524.72C1853.11 3519.84 1854.64 3514.37 1854.82 3508.78C1854.82 3505.92 1855.31 3502.97 1855.64 3500.03C1856.54 3491.84 1858.76 3490.45 1865.39 3494.05C1870.06 3496.52 1874.47 3499.42 1878.59 3502.73C1890.71 3512.71 1890.71 3515.98 1879.32 3527.27C1850.31 3555.52 1824.85 3587.2 1803.52 3621.6C1781.92 3656.73 1754.64 3688.05 1722.81 3714.29C1710.19 3724.77 1697.82 3735.65 1685.93 3747.02C1677.34 3755.09 1670.8 3765.08 1666.85 3776.18C1662.9 3787.28 1661.66 3799.16 1663.23 3810.83C1663.91 3822 1667.63 3832.78 1673.97 3842C1675.61 3844.29 1677.98 3846.34 1677.49 3849.61C1677 3852.88 1673.56 3851.66 1671.35 3851.9C1639.88 3855.17 1608.41 3858.61 1576.86 3861.64C1518.95 3866.46 1460.77 3867.37 1402.73 3864.34C1366.37 3863.97 1330.1 3860.77 1294.24 3854.77C1274.02 3851.17 1254.3 3845.21 1235.48 3837.01C1228.26 3834.24 1222.04 3829.35 1217.65 3822.98C1213.27 3816.61 1210.91 3809.07 1210.9 3801.34C1210.76 3791.28 1213.61 3781.4 1219.09 3772.95C1231.04 3752.52 1249.55 3736.72 1271.62 3728.12C1282.63 3724.07 1293.91 3720.79 1305.38 3718.3C1344.6 3709.56 1380.23 3689.13 1407.57 3659.72C1423.05 3643.36 1438.38 3627.49 1453.7 3611.37C1480.74 3582.82 1508.19 3554.84 1537.37 3528.41C1546.38 3520.01 1556.2 3512.53 1566.7 3506.08C1582.28 3496.51 1600.29 3491.63 1618.57 3492.01C1630.31 3492.66 1641.76 3495.9 1652.09 3501.5C1655.66 3503.44 1658.5 3506.49 1660.2 3510.17V3510.17ZM1636.6 3396.61C1635.92 3393.19 1635.56 3389.71 1635.54 3386.22C1635.54 3378.94 1635.54 3375.18 1645.21 3378.04C1679.77 3388.98 1715.55 3395.63 1751.74 3397.84C1774.52 3399.71 1797.45 3398.5 1819.91 3394.24C1821.05 3394 1822.2 3393.83 1823.36 3393.75C1824.04 3393.54 1824.77 3393.49 1825.49 3393.58C1826.2 3393.67 1826.89 3393.92 1827.5 3394.3C1828.11 3394.68 1828.63 3395.18 1829.04 3395.78C1829.44 3396.38 1829.71 3397.05 1829.83 3397.76C1835.04 3416.33 1838.55 3435.33 1840.32 3454.54C1840.89 3467.96 1843.02 3481.21 1843.43 3494.71C1843.93 3502.64 1841.93 3510.52 1837.71 3517.25C1833.49 3523.99 1827.27 3529.24 1819.91 3532.26C1801.12 3541.68 1780.19 3546.05 1759.19 3544.94C1740.3 3544.44 1721.52 3541.97 1703.14 3537.58C1695.67 3535.9 1689.15 3531.38 1684.95 3524.98C1674.53 3509.43 1665.88 3492.77 1659.14 3475.32C1648.96 3449.92 1641.4 3423.55 1636.6 3396.61V3396.61ZM1938.98 3349.49C1955.43 3357.01 1972.45 3363.25 1989.87 3368.14C1998.06 3371.01 1998.55 3371.25 1998.06 3380.66C1997.57 3390.07 1996.26 3399.31 1996.18 3408.64C1996.25 3431.99 1997.67 3455.32 2000.44 3478.51C2001.34 3486.69 2001.01 3487.1 1993.88 3486.2C1961.2 3481.67 1927.98 3489.2 1900.47 3507.39C1891.28 3493.72 1877.69 3483.59 1861.95 3478.67C1859.97 3478.22 1858.2 3477.09 1856.96 3475.47C1855.72 3473.86 1855.08 3471.87 1855.15 3469.84C1855.15 3466.32 1854.66 3462.8 1854.41 3459.28C1853.53 3441.78 1850.78 3424.42 1846.22 3407.5C1844.99 3403.01 1844.09 3398.45 1843.51 3393.83C1843.24 3392.39 1843.53 3390.91 1844.32 3389.67C1845.11 3388.44 1846.35 3387.56 1847.77 3387.21C1875.2 3377.09 1901.83 3364.92 1927.43 3350.8C1929.05 3349.56 1930.99 3348.78 1933.02 3348.55C1935.06 3348.32 1937.12 3348.64 1938.98 3349.49V3349.49ZM1513.77 2918.17C1512.37 2847.24 1514.34 2776.48 1518.68 2705.46C1520.4 2677.4 1521.55 2649.34 1523.44 2621.28C1526.96 2568.67 1530.24 2516.07 1538.1 2463.95C1543.56 2425.68 1553.97 2388.28 1569.08 2352.69C1583.32 2318.5 1605.58 2288.22 1633.98 2264.41C1651.65 2249.89 1671.88 2238.79 1693.64 2231.68C1709.41 2227.02 1726 2225.71 1742.31 2227.84C1759.86 2229.37 1777.22 2232.52 1794.18 2237.25C1821.85 2244.84 1848.68 2255.23 1874.24 2268.26C1901.09 2282.75 1925.44 2301.45 1946.35 2323.64C1950.01 2327.46 1953.25 2331.66 1956.02 2336.16C1958.99 2339.75 1960.68 2344.21 1960.84 2348.85C1961.01 2353.5 1959.63 2358.07 1956.93 2361.85C1949.1 2374.93 1943.19 2389.06 1939.39 2403.82C1923.44 2454.03 1912.46 2505.68 1906.61 2558.04C1899.56 2622.18 1897.27 2686.48 1896.04 2750.87C1894.73 2822.86 1892.03 2894.94 1896.53 2966.93C1899.48 3014.22 1901.37 3061.67 1905.79 3108.88C1908.99 3142.67 1911.12 3176.54 1913.99 3210.41C1917.67 3249.43 1922.18 3288.38 1926.03 3327.4C1926.85 3335.58 1927.1 3335.58 1919.56 3339.43C1898.98 3350.6 1877.8 3360.65 1856.13 3369.53C1828.65 3380.43 1799.33 3385.98 1769.76 3385.9C1741.22 3385.07 1712.81 3381.51 1684.95 3375.26C1640.82 3364.57 1597.92 3349.32 1556.95 3329.77C1554.29 3328.76 1551.97 3327.02 1550.26 3324.75C1548.55 3322.47 1547.51 3319.76 1547.28 3316.93C1542.61 3283.3 1536.55 3249.84 1532.2 3216.22C1528.76 3188.97 1526.06 3161.49 1524.75 3134C1520.9 3062 1515.24 2990.17 1513.77 2918.17V2918.17ZM3545.51 3605.4C3533.22 3626.79 3517.3 3645.89 3498.47 3661.85C3475.95 3681.52 3451.58 3698.97 3425.71 3713.97C3375.45 3742.92 3322.81 3767.55 3268.37 3787.6C3186.63 3818.27 3103.08 3843.9 3018.19 3864.34C2924.86 3887.41 2830.62 3906.14 2735.81 3921.61C2676.24 3931.51 2616.5 3940.51 2556.6 3948.2C2499.65 3955.48 2442.45 3961.69 2385.25 3967.34C2321.12 3973.72 2256.82 3979.01 2192.35 3983.21C2136.79 3986.89 2081.07 3988.86 2025.35 3991.39C1952.09 3995.07 1878.75 3995.73 1805.41 3996.71C1719.78 3997.94 1634.06 3995.65 1548.43 3993.03C1502.7 3991.72 1456.98 3989.43 1411.34 3986.81C1369.71 3984.36 1328.24 3981.17 1286.7 3977.73C1242.86 3974.13 1199.02 3970.45 1155.59 3965.7C1113.06 3961.12 1070.61 3955.64 1028.24 3949.75C987.27 3944.1 946.953 3938.05 906.555 3931.1C782.818 3909.74 660.72 3882.66 542.145 3839.96C500.579 3825.6 460.125 3808.21 421.113 3787.92C396.18 3774.84 372.531 3759.44 350.476 3741.95C333.303 3728.62 318.15 3712.89 305.488 3695.23C293.979 3679.58 286.596 3661.3 284.019 3642.05C281.647 3620.35 286.024 3598.44 296.556 3579.3C307.572 3559.22 321.862 3541.11 338.84 3525.72C363.06 3503.54 389.631 3484.06 418.081 3467.63C465.226 3440.23 514.561 3416.78 565.582 3397.51C651.088 3364.91 738.626 3337.88 827.642 3316.6C920.403 3293.69 1014.07 3275.04 1108.39 3259.33C1172.52 3248.81 1236.79 3239.56 1301.2 3231.6C1359.38 3224.24 1417.67 3217.85 1476.07 3212.45C1486.56 3211.47 1497.13 3211.39 1507.7 3210.57C1516.55 3209.92 1517.29 3210.57 1518.68 3219.16C1524.09 3253.28 1529.58 3287.39 1534.66 3321.51C1534.93 3325.3 1536.25 3328.94 1538.46 3332.03C1540.67 3335.12 1543.7 3337.54 1547.2 3339.02C1561.7 3345.4 1575.88 3352.44 1590.22 3358.9C1596.04 3361.71 1602.1 3363.99 1608.33 3365.69C1612.1 3366.2 1615.53 3368.13 1617.92 3371.08C1620.31 3374.03 1621.48 3377.78 1621.2 3381.56C1622.25 3394.41 1624.41 3407.13 1627.67 3419.6C1632.59 3441.11 1639.11 3462.22 1647.17 3482.76C1636.67 3480.18 1625.94 3478.68 1615.13 3478.26C1595.07 3478.11 1575.39 3483.79 1558.51 3494.63C1545.2 3503.21 1532.77 3513.07 1521.39 3524.08C1490.36 3553.53 1460.31 3583.97 1431.25 3615.38C1419.28 3628.25 1407.07 3640.91 1394.62 3653.34C1370.45 3678.38 1339.5 3695.83 1305.54 3703.58C1296.37 3705.62 1287.35 3708.16 1278.34 3710.78C1250.45 3718.88 1226.41 3736.7 1210.57 3761.01C1203.45 3771.14 1199.23 3783.02 1198.36 3795.37C1197.18 3805.93 1199.34 3816.6 1204.52 3825.89C1209.71 3835.17 1217.67 3842.61 1227.29 3847.16C1239.91 3853.4 1253.19 3858.26 1266.87 3861.64C1295.29 3868.98 1324.4 3873.34 1353.73 3874.65C1404.7 3877.02 1455.67 3880.45 1506.72 3878.41C1533.11 3877.35 1559.49 3876.2 1585.8 3873.5C1616.69 3870.31 1647.75 3868.51 1678.56 3864.26C1690.5 3862.35 1702.74 3864.24 1713.55 3869.66C1740.03 3881.08 1768.84 3886.09 1797.62 3884.3C1822.8 3882.82 1847.84 3879.48 1872.52 3874.32C1928.33 3864.66 1981.18 3845.52 2033.87 3825.89C2083.04 3807.51 2132.21 3788.77 2181.37 3769.68C2192.33 3765.49 2203.03 3760.66 2213.41 3755.2C2233.02 3745.52 2249.58 3730.65 2261.28 3712.21C2272.99 3693.77 2279.39 3672.47 2279.79 3650.64C2281.09 3625.44 2278.32 3600.19 2271.59 3575.87C2265.37 3552.71 2258.24 3529.81 2250.7 3507.06C2246.12 3491.91 2238.26 3477.94 2227.67 3466.16C2225.11 3463.76 2223.39 3460.6 2222.75 3457.16C2220.01 3433.6 2215.41 3410.29 2208.99 3387.45L2238.16 3384.67C2251.03 3383.52 2263.89 3382.71 2276.76 3381.15C2283.13 3380.41 2289.59 3381.4 2295.44 3384.02C2310.56 3390.44 2325.3 3397.71 2339.61 3405.78C2359.59 3416.84 2380.16 3426.81 2401.23 3435.64C2418.81 3442.19 2437.01 3446.91 2455.56 3449.71C2485.96 3456.01 2516.69 3460.76 2547.34 3466.07C2554.85 3467.28 2562.43 3467.99 2570.04 3468.2C2587.66 3468.2 2605.27 3468.2 2622.89 3468.86C2673.41 3469.19 2723.61 3460.72 2771.21 3443.82C2815.95 3429.02 2856.33 3403.39 2888.72 3369.21C2914.68 3342.03 2937.24 3311.81 2955.92 3279.21C2960.34 3271.61 2964.11 3263.91 2968.95 3256.31C2972.39 3250.33 2973.7 3249.52 2980.17 3250.99C2991.12 3252.94 3001.91 3255.68 3012.46 3259.17C3040.27 3268.56 3068.69 3276.05 3097.52 3281.59C3182.71 3300.71 3266.28 3326.45 3347.45 3358.57C3382.26 3372.59 3415.93 3389.28 3448.16 3408.48C3469.9 3421.29 3490.24 3436.32 3508.88 3453.31C3521.96 3465.1 3533.38 3478.62 3542.81 3493.48C3553.82 3509.92 3559.93 3529.15 3560.41 3548.93C3560.89 3568.7 3555.72 3588.2 3545.51 3605.16V3605.4Z" fill="black"/>
<path d="M1797.95 1235.37H1805.17C1803.53 1237.5 1801.72 1239.95 1798.69 1239.38C1795.66 1238.81 1795.17 1237.33 1797.95 1235.37Z" fill="#6F5B5B"/>
<path d="M1797.95 3834.64C1783.5 3834.97 1769.05 3833.77 1754.85 3831.04C1747.8 3829.32 1744.53 3826.05 1746.16 3822.86C1748.46 3818.03 1752.88 3819.18 1756.82 3819.5C1767.85 3821.08 1778.95 3822.09 1790.09 3822.53C1828.27 3821.74 1866.03 3814.35 1901.7 3800.69C1913.77 3796.16 1925.59 3790.97 1937.1 3785.14C1977.94 3764.6 2017.71 3741.99 2056.24 3717.4C2067.17 3710.37 2078.1 3703.47 2089.02 3696.7C2116.13 3680.12 2146.22 3669.01 2177.6 3663.98C2181.53 3662.73 2185.71 3662.53 2189.73 3663.41C2192.68 3664.47 2195.14 3665.94 2195.06 3669.46C2195.05 3670.63 2194.66 3671.77 2193.93 3672.69C2193.2 3673.61 2192.18 3674.26 2191.04 3674.53C2186.55 3675.86 2181.98 3676.92 2177.36 3677.72C2144.31 3683.27 2112.81 3695.73 2084.92 3714.29C2042.81 3741.98 1999.32 3767.54 1954.63 3790.87C1918.46 3810.4 1879.36 3823.94 1838.84 3830.96C1825.29 3832.91 1811.64 3834.13 1797.95 3834.64V3834.64Z" fill="#030200"/>
<path d="M1550.56 3821.63C1505.47 3821.85 1460.41 3819.12 1415.68 3813.45C1382.08 3809.03 1348.4 3804.7 1315.05 3798.56C1311.03 3797.9 1307.08 3796.86 1303.25 3795.45C1302.53 3795.3 1301.85 3794.99 1301.26 3794.55C1300.67 3794.12 1300.18 3793.56 1299.82 3792.91C1299.47 3792.27 1299.25 3791.56 1299.19 3790.82C1299.13 3790.09 1299.23 3789.35 1299.48 3788.66C1299.85 3787.55 1300.55 3786.58 1301.49 3785.88C1302.43 3785.18 1303.56 3784.78 1304.73 3784.74C1306.47 3784.49 1308.23 3784.49 1309.97 3784.74C1355.53 3792.92 1401.42 3798.4 1447.39 3803.39C1489.89 3808.01 1532.66 3809.65 1575.39 3808.3C1583.01 3808.3 1590.63 3807.89 1598.25 3807.89C1601.17 3807.89 1604.07 3808.14 1606.94 3808.63C1608.11 3808.79 1609.19 3809.35 1609.99 3810.22C1610.8 3811.08 1611.28 3812.19 1611.37 3813.37C1611.53 3814.53 1611.31 3815.71 1610.73 3816.74C1610.15 3817.76 1609.25 3818.56 1608.17 3819.02C1603.24 3820.94 1597.97 3821.83 1592.68 3821.63H1550.56Z" fill="#050300"/>
<path d="M2103.53 1813.62C2103.53 1818.12 2098.61 1821.31 2095.33 1819.84C2092.81 1818.41 2090.4 1816.8 2088.12 1815.01C2071.19 1803.21 2051.36 1796.23 2030.76 1794.81C2017.93 1793.14 2004.89 1795.25 1993.23 1800.86C1990.03 1802.42 1986.43 1803.31 1983.72 1799.96C1981.02 1796.61 1983.72 1792.43 1987.9 1789.98C1999.25 1783.76 2012.09 1780.76 2025.02 1781.31C2047.92 1781.38 2070.34 1787.84 2089.76 1799.96C2093.63 1802.54 2097.22 1805.5 2100.5 1808.8C2101.87 1810.15 2102.9 1811.8 2103.53 1813.62V1813.62Z" fill="#0B0707"/>
<path d="M1944.97 1531.86C1937.67 1531.96 1930.44 1530.51 1923.74 1527.6C1921.81 1526.43 1920.09 1524.93 1918.66 1523.19C1918.33 1522.56 1918.14 1521.86 1918.12 1521.15C1918.09 1520.44 1918.22 1519.74 1918.51 1519.08C1918.79 1518.43 1919.22 1517.85 1919.75 1517.39C1920.29 1516.92 1920.93 1516.58 1921.61 1516.4C1924.36 1516.17 1927.12 1516.36 1929.81 1516.97C1938.28 1519.28 1947.14 1519.81 1955.83 1518.53C1964.52 1517.25 1972.84 1514.18 1980.28 1509.52C1987.29 1505.37 1994.05 1500.81 2000.53 1495.86C2002.98 1494.22 2005.2 1492.34 2007.65 1490.79C2008.56 1490.06 2009.69 1489.66 2010.85 1489.66C2012.01 1489.66 2013.14 1490.06 2014.05 1490.79C2015.26 1491.61 2016.14 1492.84 2016.51 1494.25C2016.89 1495.66 2016.74 1497.17 2016.09 1498.48C2015.75 1499.6 2015.16 1500.63 2014.37 1501.51C1996.15 1520.36 1971.21 1531.27 1944.97 1531.86V1531.86Z" fill="#0C0808"/>
<path d="M2143.6 1536.93C2136.96 1536.28 2131.72 1535.7 2126.47 1535.29C2100.91 1533.58 2083.78 1518.93 2070.34 1498.64C2069.76 1497.62 2069.35 1496.52 2069.11 1495.37C2068.74 1494.27 2068.75 1493.08 2069.14 1491.98C2069.52 1490.88 2070.26 1489.95 2071.24 1489.32C2072.19 1488.61 2073.34 1488.23 2074.52 1488.23C2075.7 1488.23 2076.85 1488.61 2077.8 1489.32C2079.86 1491.32 2081.81 1493.46 2083.62 1495.7C2086.92 1499.76 2090.45 1503.64 2094.19 1507.31C2102.14 1515.12 2112.51 1520 2123.6 1521.14L2142.78 1522.86C2145.67 1522.96 2148.55 1523.32 2151.38 1523.92C2152.82 1524.16 2154.12 1524.94 2155.02 1526.09C2155.91 1527.24 2156.34 1528.69 2156.22 1530.14C2156.13 1531.6 2155.54 1532.99 2154.56 1534.07C2153.58 1535.15 2152.26 1535.87 2150.81 1536.11C2148.44 1536.61 2146.02 1536.89 2143.6 1536.93V1536.93Z" fill="#0E0B0B"/>
<path d="M2016.42 1683.13C2017.25 1676.8 2019.37 1670.7 2022.65 1665.21C2023.26 1664.2 2024.24 1663.46 2025.38 1663.14C2026.52 1662.82 2027.74 1662.95 2028.79 1663.49C2031.09 1664.48 2033.05 1666.19 2032.72 1668.65C2032.15 1673.23 2030.68 1677.73 2030.02 1682.31C2029.61 1683.58 2029.49 1684.91 2029.65 1686.23C2029.81 1687.55 2030.26 1688.82 2030.96 1689.94C2031.66 1691.07 2032.6 1692.04 2033.71 1692.77C2034.82 1693.5 2036.08 1693.98 2037.4 1694.17C2041.33 1695.24 2045.59 1695.32 2049.44 1696.14C2050.58 1696.39 2051.61 1697.02 2052.35 1697.93C2053.09 1698.83 2053.51 1699.96 2053.54 1701.13C2053.6 1702.32 2053.31 1703.5 2052.69 1704.52C2052.08 1705.54 2051.18 1706.35 2050.1 1706.85C2036.17 1713.97 2015.84 1700.8 2016.42 1683.13Z" fill="#131010"/>
</svg>
