<svg xmlns="http://www.w3.org/2000/svg" data-name="Layer 1" viewBox="0 0 700 550"><path d="M396.54693,205.88845s-15.65943-14.5748-21.64023-10.45229c0,0-7.82972,17.69708-11.43329,19.06488-1.49043,4.33946-3.64128,8.47118-6.63165,8.32977a9.16134,9.16134,0,0,0,.09431,4.41477c.64146,2.6414-5.47136,14.20653-9.5466,13.0748-4.07524-1.13219-9.89564-11.46173-8.19764-17.28207a11.17059,11.17059,0,0,0,.25473-1.19806c-.217-.42445-7.39582-14.01814-8.12215-21.11208-.74528-7.207-3.85829-4.08474-3.85829-4.08474s4.13183,3.6414-2.3112,6.50919c-6.45242,2.87724-22.46094,5.12228-16.08394-.83947,0,0-.9339-2.79225-4.05636-.24551,0,0-2.2546,2.97166,3.17906,13.0748,0,0,8.41458,43.2898,6.9147,54.129,0,0-2.3678,27.55494.30182,30.17745,1.27354,1.25449,17.66881,5.92421,33.88483,5.45254a114.16937,114.16937,0,0,0,30.40385-4.87723l-.97161-37.95057a57.87836,57.87836,0,0,1,4.35823-23.58352Zm-52.44027,81.82512a20.48446,20.48446,0,0,1-8.96174-4.3109,21.09157,21.09157,0,0,1-5.8676-8.03728,22.70071,22.70071,0,0,1-1.8112-9.5937,34.207,34.207,0,0,0,3.14134,8.971,23.45234,23.45234,0,0,0,5.74491,7.21669,18.70056,18.70056,0,0,0,3.83,2.55642c.66979.39613,1.39618.66973,2.09425,1,.73577.24527,1.45272.5753,2.20738.7736a44.03177,44.03177,0,0,0,9.3957,1.65085A26.04075,26.04075,0,0,1,344.10666,287.71357Z"/><path d="M365.86954 205.34124l-.04722.01888c.32076-5.92421-2.6885-18.70652-2.6885-18.70652s-16.04623.783-18.22534.21695c0 0-4.78275-.09442-4.32052 14.33873 0 0-5.01852-4.80168-3.87712 1.22639.20757 1.09443.42452 2.047.65091 2.8678-9.57487-6.13172 1.97161-31.45106 2.01876-29.24356a2.95922 2.95922 0 00.88675 1.80169c1.981 2.22639 5.06573-.2075 7.82971-1.16973.5566-.19806 1.09431-.3678 1.62258-.51865a14.17747 14.17747 0 0118.01778 13.22542A52.57789 52.57789 0 01365.86954 205.34124zM346.93608 219.84707a13.13723 13.13723 0 01-3.88834-3.23674 10.735 10.735 0 01-1.36777-2.16674 6.51546 6.51546 0 01-.59644-2.4765 11.89819 11.89819 0 001.01758 2.25748 18.06269 18.06269 0 001.4185 2.00253A43.35963 43.35963 0 00346.93608 219.84707zM351.6062 221.70819a4.362 4.362 0 001.29272.24689c.43361.04238.86671.10226 1.30475.15753.43471.07416.87431.14418 1.31359.2568a6.25175 6.25175 0 011.32447.4613 5.89136 5.89136 0 01-2.77881.21419 5.43088 5.43088 0 01-1.36019-.38323A1.84111 1.84111 0 01351.6062 221.70819z"/><path d="M365.883,205.36371a10.54786,10.54786,0,0,1-.10085,1.304c-.07251.441-.17722.84984-.26793,1.27614l-.58115,2.53177a50.54176,50.54176,0,0,1-1.44631,5.00666,23.55623,23.55623,0,0,1-2.19463,4.78833,8.25554,8.25554,0,0,1-1.77659,2.067,4.112,4.112,0,0,1-2.69668.97766l.48716-.34385a8.67838,8.67838,0,0,0-.05372,3.225c.04572.27176.0967.5426.1611.81045a3.9555,3.9555,0,0,1,.08291.51129,3.78681,3.78681,0,0,1-.00817.50529,8.73144,8.73144,0,0,1-.37941,1.80746,24.71577,24.71577,0,0,1-3.1777,6.304,17.5345,17.5345,0,0,1-2.26453,2.73859,6.51841,6.51841,0,0,1-3.15613,1.88161,2.54913,2.54913,0,0,1-1.00714-.00829,4.41217,4.41217,0,0,1-.90479-.33348,6.95218,6.95218,0,0,1-1.4924-1.04307,14.24289,14.24289,0,0,1-2.31471-2.66811,24.905,24.905,0,0,1-3.13777-6.2296,18.75112,18.75112,0,0,1-.81241-3.3998,10.02527,10.02527,0,0,1,.03429-3.50989,64.59083,64.59083,0,0,0,1.06543-6.82678q.40454-3.437.7502-6.88183l.44041.41847a2.493,2.493,0,0,1-1.21522-.06978,2.66817,2.66817,0,0,1-1.02614-.64648,6.02976,6.02976,0,0,1-1.19806-1.87539,22.25313,22.25313,0,0,1-1.2261-4.05365,15.21813,15.21813,0,0,1-.4246-2.09833,5.18347,5.18347,0,0,1-.0112-1.15937,1.76828,1.76828,0,0,1,.671-1.29019,1.70245,1.70245,0,0,1,1.4833-.12782,5.04241,5.04241,0,0,1,1.061.50207A11.42912,11.42912,0,0,1,340.991,200.788l-.9858.43988c-.02159-1.33924-.06869-2.67779-.0021-4.02347a31.093,31.093,0,0,1,.37641-4.03684,14.76826,14.76826,0,0,1,1.16037-3.974c.15644-.319.34051-.631.52185-.94173a6.53666,6.53666,0,0,1,.69245-.871,3.90248,3.90248,0,0,1,.90353-.73261,2.91645,2.91645,0,0,1,.5559-.26647,2.24519,2.24519,0,0,1,.70711-.14025l.03186.00184.11418.01819.47153.07554.54479.04146c.35865.03478.74268.03316,1.11282.05159q1.12468.02935,2.2611.02556l4.54616-.05412c3.03422-.044,6.073-.1269,9.107-.23146l.01423-.00069a.476.476,0,0,1,.48076.37333c.6803,3.09948,1.21609,6.216,1.67313,9.35q.34788,2.34846.52735,4.72085a31.79008,31.79008,0,0,1,.07747,4.74964.06069.06069,0,0,1-.06538.056.06147.06147,0,0,1-.05611-.06241,31.55536,31.55536,0,0,0-.3471-4.70242c-.20964-1.55942-.476-3.11146-.75737-4.66051-.56126-3.09695-1.26914-6.17386-1.99458-9.22912l.49479.3724q-4.56044.26843-9.12261.45371c-1.522.06633-3.04579.08567-4.57374.09949q-1.14555.01037-2.29913-.01428c-.389-.017-.76635-.01289-1.165-.04813l-.59227-.04261-.65413-.10571.14567.02a1.66177,1.66177,0,0,0-.59722.23721,2.66567,2.66567,0,0,0-.62845.52165,5.28969,5.28969,0,0,0-.53967.68609c-.14831.263-.30256.52418-.43652.79963a14.96642,14.96642,0,0,0-1.05938,3.6407,29.86782,29.86782,0,0,0-.41289,3.87424c-.08288,1.30446-.05406,2.6186-.05118,3.93135l0,.01221a.58528.58528,0,0,1-.986.42791,10.36175,10.36175,0,0,0-1.53457-1.207,3.97029,3.97029,0,0,0-.80524-.40028c-.25907-.08406-.4747-.07853-.51854-.02694-.07243.02119-.17547.24458-.21024.51934a4.25092,4.25092,0,0,0-.01322.91386,14.44444,14.44444,0,0,0,.34463,1.98157,21.46607,21.46607,0,0,0,1.05682,3.92375c.473,1.2135,1.283,2.43159,2.502,2.18747a.37168.37168,0,0,1,.44167.41087l-.00112.0076q-.45,3.4401-.96073,6.86847c-.36072,2.28142-.67342,4.58082-1.20883,6.83645a12.719,12.719,0,0,0,.7648,6.6939,22.101,22.101,0,0,0,3.20686,6.02991,13.63386,13.63386,0,0,0,2.30817,2.46476,6.27906,6.27906,0,0,0,1.36832.88484,3.743,3.743,0,0,0,.72236.24113,1.74232,1.74232,0,0,0,.71139-.02349,5.722,5.722,0,0,0,2.62807-1.745,19.80182,19.80182,0,0,0,2.09126-2.63541,26.22974,26.22974,0,0,0,3.00664-6.04673,7.773,7.773,0,0,0,.359-1.56909,2.78019,2.78019,0,0,0,.01318-.35951,2.59873,2.59873,0,0,0-.05228-.34316c-.06621-.29479-.11783-.59212-.1632-.89037a9.51782,9.51782,0,0,1,.13531-3.65752.45688.45688,0,0,1,.46513-.345l.02225.00115a3.1612,3.1612,0,0,0,2.07479-.74136,8.20314,8.20314,0,0,0,1.626-1.81459,22.82753,22.82753,0,0,0,2.27991-4.544c.61788-1.60087,1.14975-3.23836,1.65435-4.88829l.72138-2.488c.11127-.41409.24612-.83694.34665-1.243a10.38952,10.38952,0,0,0,.19383-1.27061.06086.06086,0,0,1,.12143.00737Z"/><path d="M365.34012 196.77346c-.56046-.28074-1.0815-.5532-1.601-.79042a6.04046 6.04046 0 00-1.54415-.50759 2.688 2.688 0 00-1.47256.14785 5.72553 5.72553 0 00-1.422.95025 2.76366 2.76366 0 011.05876-1.5905 2.6853 2.6853 0 011.989-.43782 4.01043 4.01043 0 011.77182.81115A4.30773 4.30773 0 01365.34012 196.77346zM351.04181 195.63781a7.38425 7.38425 0 00-3.85729-.79226 5.26716 5.26716 0 00-1.82435.54791c-.31028.1193-.57588.33118-.88571.4871-.29226.18309-.56788.39636-.89431.57669a6.911 6.911 0 01.58682-.92308 5.00709 5.00709 0 01.80556-.76646 4.19621 4.19621 0 012.108-.85928 4.29262 4.29262 0 012.24772.36066A4.20538 4.20538 0 01351.04181 195.63781zM359.4956 205.41092a2.61058 2.61058 0 01-1.75866 2.07139 2.92917 2.92917 0 01-1.41878.13634 2.62306 2.62306 0 01-1.27136-.53569c.46663-.09374.87707-.12391 1.269-.20037a6.26879 6.26879 0 001.10145-.28719 5.52315 5.52315 0 001.02579-.47812A12.55736 12.55736 0 00359.4956 205.41092zM361.26561 201.7962a1.41586 1.41586 0 000-2.83 1.41586 1.41586 0 000 2.83zM348.818 201.64573a1.41586 1.41586 0 000-2.83 1.41586 1.41586 0 000 2.83zM353.33449 210.41413a2.24627 2.24627 0 00.07666 1.64163 3.19217 3.19217 0 00.94271 1.2234 3.1 3.1 0 001.38714.65891 2.11943 2.11943 0 001.59777-.3222 1.77628 1.77628 0 01-1.629 1.0578 2.90847 2.90847 0 01-1.9499-.66236 2.96174 2.96174 0 01-1.056-1.76163A1.834 1.834 0 01353.33449 210.41413zM327.41257 196.66959l-5.42766-10.6849-5.48892-10.646c-1.84414-3.53914-3.72253-7.06078-5.69333-10.52323-.97431-1.73675-1.96193-3.46567-3.01191-5.1483-.52544-.84016-1.06609-1.67-1.63835-2.46682a9.92173 9.92173 0 00-1.8519-2.093l-.01607-.01151a.48215.48215 0 01-.11031-.673.49125.49125 0 01.15229-.13727 1.72041 1.72041 0 00.57416-.7204 3.06015 3.06015 0 00.23238-1.055 6.8394 6.8394 0 00-.36648-2.30377 15.284 15.284 0 00-.96315-2.23444c-.36843-.73169-.81039-1.42745-1.24136-2.13012l-.01088-.01773a.2888.2888 0 01-.038-.10134l-.73008-4.3162-.17756-1.08129-.08637-.5433-.03955-.27222a1.22329 1.22329 0 00-.06011-.20958 2.10911 2.10911 0 00-1.36314-1.28857c-.59661-.10226-1.13927.51289-1.178 1.15706-.0171.68471.0023 1.44495.00691 2.16328.01117.72777.01652 1.45716.05815 2.1801a1.25454 1.25454 0 01-.36389 1.15453 1.68976 1.68976 0 01-1.15712.34845 4.33773 4.33773 0 01-2.14077-.7531c-.31742-.19968-.61245-.45486-.88887-.65385-.28789-.205-.59391-.3929-.90557-.57254a36.06271 36.06271 0 00-3.92186-1.87033l-2.0225-.8146a13.41523 13.41523 0 00-2.00339-.687 1.57007 1.57007 0 00-1.61929.50921 2.50731 2.50731 0 00.0726 1.8473.3599.3599 0 01-.48313.44058l-.00535-.0023-1.75144-.74344a4.42252 4.42252 0 00-1.675-.49792 2.0746 2.0746 0 00-1.45007.4392c-.29566.27314-.24586.77775-.02061 1.30262a.44782.44782 0 01-.52822.6087l-.01612-.00438a17.49276 17.49276 0 00-2.00356-.42054 5.27569 5.27569 0 00-1.88985-.01612 1.64291 1.64291 0 00-1.07386 1.05043c-.11481.42676.17877.89959.63737 1.30677a.5483.5483 0 01.08573.72363l-.00788.01128a1.87748 1.87748 0 00-.39654 1.45071c.09368.32335.6497.5684 1.271.63957a9.29058 9.29058 0 011.08815.155 8.82642 8.82642 0 011.07473.32957 16.1802 16.1802 0 011.97668.90972 36.09553 36.09553 0 013.6122 2.26853c1.15868.81782 2.27608 1.66605 3.37735 2.57622l-.0676-.0502c1.93528 1.23122 3.86877 2.47534 5.82121 3.6741.97449.59534 1.95928 1.20013 2.93826 1.72892l.3575.18148.5361.23676a1.26028 1.26028 0 01.25984.32657l.123.21465.2082.40465c.262.53224.499 1.05988.734 1.59027 1.8602 4.23582 3.4822 8.54258 5.07069 12.868 1.58624 4.32426 3.08267 8.6826 4.417 13.09392.66725 2.2052 1.3112 4.41937 1.84108 6.66464a32.87656 32.87656 0 011.07841 6.82955.06063.06063 0 01-.05994.06149.06405.06405 0 01-.06172-.06034 32.65538 32.65538 0 00-1.38346-6.71831q-.96557-3.3033-2.07657-6.564c-1.48738-4.34429-3.08779-8.651-4.737-12.93731-1.66761-4.277-3.39048-8.54372-5.22051-12.73463-.23284-.51981-.46965-1.0403-.71758-1.53846l-.18781-.36158-.09178-.15915c-.0091-.0304-.10358-.12874.005-.01934.05309.03155-.0061.02.1926.10226a.57614.57614 0 00.1725.02395l-.04232-.003a1.35467 1.35467 0 01-.16939-.026 1.47179 1.47179 0 01-.17567-.05666c-.10508-.03754-.16156-.06886-.24453-.1041l-.41231-.20681c-1.04686-.56034-2.02463-1.15707-3.01519-1.75587-1.9685-1.20543-3.9203-2.42353-5.85431-3.6787l-.06132-.04491-.00662-.00553a45.18874 45.18874 0 00-6.72671-4.7752 15.008 15.008 0 00-1.82081-.86366 7.65983 7.65983 0 00-.92532-.29617 8.39183 8.39183 0 00-.98543-.1474 3.84367 3.84367 0 01-1.17549-.34155 1.906 1.906 0 01-.98952-1.0479 2.18621 2.18621 0 01.01474-1.3823 3.96761 3.96761 0 01.54963-1.10065l.07778.73446a3.49814 3.49814 0 01-.7732-.991 2.03577 2.03577 0 01-.15471-1.38967 2.398 2.398 0 01.7082-1.13013 2.61722 2.61722 0 011.12218-.63242 6.02126 6.02126 0 012.30088.04215 18.37762 18.37762 0 012.112.49585l-.54421.6041a2.99571 2.99571 0 01-.2325-1.09535 1.60666 1.60666 0 01.48451-1.16006 2.84189 2.84189 0 012.09563-.64 5.17549 5.17549 0 011.93873.6064l1.7333.78466-.48837.43827a3.09939 3.09939 0 01.03984-2.40533 1.6823 1.6823 0 011.08061-.74827 2.97885 2.97885 0 011.2147-.02465 13.39614 13.39614 0 012.11117.7743l2.01375.871c1.33176.60594 2.66069 1.22109 3.939 1.95831.31817.18747.63242.38392.93631.60479.31224.23077.56708.45808.86585.65016a3.955 3.955 0 001.92738.70681 1.31849 1.31849 0 00.89648-.246.87807.87807 0 00.24228-.84661l-.07111-2.19207c-.01289-.73906-.044-1.43758-.03235-2.2098a1.86819 1.86819 0 01.47783-1.11216 1.36407 1.36407 0 011.16731-.43989 1.90764 1.90764 0 011.06886.57762 3.0641 3.0641 0 01.66841.97143 1.639 1.639 0 01.09218.31461l.04232.26807.092.5357.20077 1.073.86331 4.2858-.04877-.11884c.463.70382.93683 1.40119 1.34269 2.14716a15.865 15.865 0 011.08314 2.31966 7.63472 7.63472 0 01.48313 2.59327 3.04174 3.04174 0 01-1.23526 2.57737l.02591-.82174a9.47613 9.47613 0 012.17745 2.30354c.60064.8199 1.15891 1.6596 1.70053 2.50759 1.07836 1.69829 2.0992 3.42422 3.08239 5.16972 1.94034 3.505 3.78084 7.05663 5.58657 10.62456 1.81857 3.56148 3.52106 7.17961 5.23467 10.79038q2.56038 5.42133 4.94822 10.92188a.06086.06086 0 01-.11021.05159z"/><path d="M298.70828 159.28857a7.663 7.663 0 01-3.71481 1.8671.51971.51971 0 11-.19265-1.02141.55933.55933 0 01.13519-.0076A7.152 7.152 0 00298.70828 159.28857zM297.75745 147.04771c.3267.99424.56282 1.96591.89561 2.89981a10.17356 10.17356 0 00.55787 1.36111 5.4848 5.4848 0 00.83849 1.23745 2.82681 2.82681 0 01-1.24061-.985 5.11559 5.11559 0 01-.73031-1.415A6.73391 6.73391 0 01297.75745 147.04771zM291.1296 145.46711l-7.84532-3.05665a.30437.30437 0 01.22092-.56724l.02021.00875zM287.33729 146.97217l-9.26067-3.48018a.30423.30423 0 11.21407-.56955l.01733.00691zM283.24553 148.4314c-1.61918-.54744-3.25477-1.04583-4.90239-1.48387-.825-.213-1.6528-.41433-2.48473-.57094a8.42 8.42 0 00-2.44213-.1824l-.034.00461a.30436.30436 0 11-.08194-.60318l.01923-.00207a8.70631 8.70631 0 012.6357.33717c.8374.20981 1.65805.462 2.47391.72524Q280.87055 147.46261 283.24553 148.4314zM392.24268 202.27229l3.48445-12.95343 1.7151-6.47925c.27323-1.08106.54954-2.16512.78653-3.24527a31.36261 31.36261 0 00.49643-3.27336c.49867-4.43.909-8.88643 1.374-13.33551q.34244-3.3382.752-6.67616.20681-1.66893.46787-3.33924c.10646-.55826.19887-1.11284.32226-1.6741l.208-.84592a8.64452 8.64452 0 01.34192-.9088.34158.34158 0 01.165-.18033l.07088-.03547a18.3933 18.3933 0 002.8359-1.80584 22.14 22.14 0 002.547-2.25379 23.63518 23.63518 0 003.98366-5.49514l.00685-.0129a.43853.43853 0 01.07816-.10525l5.78214-5.70334a1.472 1.472 0 00.33167-.74067 3.09221 3.09221 0 00.02312-.90949.9699.9699 0 00-.32664-.658 1.01351 1.01351 0 00-.72391-.15085 1.47393 1.47393 0 00-.7441.35928l-.71772.70244c-.4909.47558-.98892.9438-1.49977 1.39981a15.28708 15.28708 0 01-3.35253 2.44518 1.90441 1.90441 0 01-.56463.14993.698.698 0 01-.65764-.28627 1.47537 1.47537 0 01-.04678-1.18839 6.77 6.77 0 011.0251-1.83878 27.51024 27.51024 0 012.72739-3.07346 8.67488 8.67488 0 002.33578-3.19045c.23241-.60548.154-1.29272-.44162-1.52164a1.777 1.777 0 00-1.751.25679 13.6267 13.6267 0 00-2.99809 2.64808c-.44584.50621-.88078 1.023-1.29369 1.55849-.42907.52234-.78213 1.09534-1.276 1.61768a5.17886 5.17886 0 01-.80786.69023 3.26567 3.26567 0 01-.46949.28075.75312.75312 0 01-.70583.05251.48857.48857 0 01-.16977-.1877 1.13071 1.13071 0 01-.05487-.19185 1.28225 1.28225 0 01.00492-.313 2.94573 2.94573 0 01.11974-.53822 8.92454 8.92454 0 01.36639-.98319 12.05419 12.05419 0 01.99662-1.82749l1.15672-1.68056a24.22125 24.22125 0 001.98405-3.49538 4.795 4.795 0 00.47936-1.81206.88615.88615 0 00-.306-.65707.7032.7032 0 00-.642-.1953 3.01929 3.01929 0 00-1.46386.98917 9.46074 9.46074 0 00-1.155 1.58107c-.349.56955-.6294 1.14739-.93381 1.77521-.3106.62275-.64944 1.222-1.00282 1.81275a26.36093 26.36093 0 01-2.37341 3.40971c-.11662.135-.23957.269-.3754.4005a2.86629 2.86629 0 01-.22029.19738.77274.77274 0 01-.1704.12091 1.27922 1.27922 0 01-.14955.06886.75148.75148 0 01-.27119.0152.63624.63624 0 01-.40166-.24528.86088.86088 0 01-.12589-.23652 1.82392 1.82392 0 01-.08518-.34546 4.785 4.785 0 01-.04132-.56887 18.05148 18.05148 0 01.1202-2.09833 38.17069 38.17069 0 01.856-4.04213 7.94947 7.94947 0 00.201-1.89451 4.93049 4.93049 0 00-.31134-1.77591c-.10289-.24044-.26863-.406-.29333-.38714-.01451.017-.01111-.0053-.036.00092a.19437.19437 0 01-.08859.032 1.70742 1.70742 0 00-.26989.20935 6.91563 6.91563 0 00-1.05357 1.52855 16.05455 16.05455 0 00-1.45419 3.64762c-.16945.63818-.30936 1.28535-.42789 1.94264-.13006.66928-.19233 1.29733-.377 2.05872a17.37521 17.37521 0 01-1.55 3.93527 3.86941 3.86941 0 01-1.70028 1.708 1.7303 1.7303 0 01-.76047.1193 2.5124 2.5124 0 01-.391-.05044l-.33581-.14464a3.08241 3.08241 0 01-.99223-.78373c-1.0477-1.23629-1.27524-2.71142-1.93881-3.64163a1.7042 1.7042 0 00-1.24208-.76808 3.09927 3.09927 0 00-.83953.00968l-.43076.07623c-.10764.047-.24882.07853-.33323.1246-.18154.11976-.13963.08774-.155.21649a1.76929 1.76929 0 00.26413.6718c.30562.52741.72072 1.06564 1.11613 1.64118a9.00746 9.00746 0 01.57707.92514 4.44805 4.44805 0 01.41945 1.09719c.16539.71649.24951 1.39589.34068 2.08106l.47366 4.04674c.09091.664.18727 1.32726.32266 1.96429a7.73847 7.73847 0 00.24349.91133 2.02275 2.02275 0 00.29223.60847l.1406.21834a.52843.52843 0 01.06173.43436c-1.26845 4.25286-2.60962 8.48407-3.91086 12.727l-3.932 12.72059-3.932 12.72059-4.02745 12.692a.06083.06083 0 01-.11657-.03477l3.60927-12.81732 3.70476-12.78853 3.70476-12.78876c1.24435-4.26 2.44875-8.532 3.72589-12.78231l.20227.65269a2.1188 2.1188 0 01-.45025-.60318 2.89044 2.89044 0 01-.23285-.55527 8.87274 8.87274 0 01-.28722-1.056c-.14918-.69277-.24965-1.37609-.34543-2.05872l-.4871-4.05434c-.08913-.6619-.17812-1.33325-.32128-1.942a4.65519 4.65519 0 00-.8148-1.60179c-.37419-.54467-.79831-1.08129-1.17875-1.72915a2.871 2.871 0 01-.43185-1.22454.98315.98315 0 01.03112-.42838 1.00142 1.00142 0 01.174-.42814 1.609 1.609 0 01.61449-.55849 4.46163 4.46163 0 01.617-.23768l.57226-.10617a4.35463 4.35463 0 011.19086-.014 3.02125 3.02125 0 012.121 1.29387c.87885 1.31874 1.08959 2.69713 1.84877 3.54812a1.88053 1.88053 0 00.58348.48134 1.08865 1.08865 0 01.12774.06771c.04108.00921.07672-.00184.11351.00668.07237.03708.15223-.02625.2346-.03017a2.81814 2.81814 0 001.09114-1.16973 16.272 16.272 0 001.453-3.62735c.1429-.559.23629-1.286.36846-1.95048.12808-.67986.28063-1.36135.46563-2.03615a17.228 17.228 0 011.59113-3.898 7.79206 7.79206 0 011.284-1.79571 2.65576 2.65576 0 01.54606-.39359 3.7813 3.7813 0 01.39552-.12828 1.638 1.638 0 01.46983.01335 1.66066 1.66066 0 011.06353 1.02925 5.93328 5.93328 0 01.39118 2.2151 8.79128 8.79128 0 01-.25953 2.14716 37.967 37.967 0 00-.905 3.91777 17.23026 17.23026 0 00-.14835 1.96936 3.916 3.916 0 00.02318.44795 1.05535 1.05535 0 00.03115.14993c.0063.03109.00365.0023-.01276-.00991a.35573.35573 0 00-.19887-.111.253.253 0 00-.14451.01175.06816.06816 0 00-.0368.00921c-.04013.03271.01463-.01013.03478-.0281a1.90625 1.90625 0 00.16145-.14025c.11034-.103.21936-.21741.32721-.33809a25.61328 25.61328 0 002.33514-3.24136c.35436-.57.69507-1.14969 1.0013-1.73882.2987-.59051.6235-1.23215.99645-1.81575a10.20786 10.20786 0 011.27772-1.68424 3.65216 3.65216 0 011.9066-1.18332 1.42617 1.42617 0 011.22878.39636 1.6205 1.6205 0 01.36821.51175 1.55838 1.55838 0 01.14008.63311 5.30451 5.30451 0 01-.5705 2.09672 24.7646 24.7646 0 01-2.1011 3.55457 20.38128 20.38128 0 00-2.17209 3.3899 8.45258 8.45258 0 00-.36256.92008 2.51331 2.51331 0 00-.11124.45325.64281.64281 0 00-.00129.2462.57576.57576 0 00.26514-.07324 2.84755 2.84755 0 00.40548-.24021 4.7224 4.7224 0 00.74441-.62713c.44726-.46269.82143-1.0502 1.25777-1.57623.421-.53846.86541-1.05964 1.32177-1.57046a13.97919 13.97919 0 013.114-2.70773 3.28693 3.28693 0 011.00063-.4088 1.75636 1.75636 0 011.10827.15108 1.25583 1.25583 0 01.73238.87609 2.12061 2.12061 0 01-.105 1.10064 9.01656 9.01656 0 01-2.39941 3.36089 27.12163 27.12163 0 00-2.65594 3.04582 6.38092 6.38092 0 00-.94276 1.71372 1.09582 1.09582 0 00-.00662.78926c.04977.13427.37036.08775.65226-.03892a14.23744 14.23744 0 003.16112-2.4157c.49352-.46085.97572-.935 1.45068-1.41639l.72391-.74a2.10713 2.10713 0 011.05832-.53432 1.66049 1.66049 0 011.22392.24828 1.641 1.641 0 01.61659 1.08958 3.77125 3.77125 0 01.00172 1.12206 2.20727 2.20727 0 01-.46789 1.10709l-5.70484 5.88321.08481-.11814a24.07482 24.07482 0 01-1.80841 3.05664 22.19979 22.19979 0 01-2.26211 2.73951 23.17778 23.17778 0 01-2.64526 2.37355 19.27734 19.27734 0 01-3.01758 1.944l.23561-.21557c-.06987.22755-.16585.40926-.23189.66467l-.18638.78374c-.11291.53086-.20074 1.08037-.30018 1.62067-.17788 1.09443-.34405 2.19323-.49038 3.29847q-.44085 3.31367-.80636 6.64645c-.5127 4.43965-.92794 8.88873-1.51241 13.33574a32.18845 32.18845 0 01-.58 3.34246c-.26543 1.09857-.5644 2.17526-.86164 3.25563l-1.85343 6.45092c-1.28316 4.28534-2.60559 8.55755-3.93542 12.82745a.0608.0608 0 01-.11671-.03408z"/><path d="M406.95518 138.15875a30.86425 30.86425 0 00-2.571-2.63472 8.004 8.004 0 00-1.4504-1.03823 5.09527 5.09527 0 00-1.71564-.57 3.23684 3.23684 0 011.9104.137 5.39876 5.39876 0 011.65341 1.01151A7.87441 7.87441 0 01406.95518 138.15875zM399.08527 135.6226a9.36747 9.36747 0 01.00464 2.96337 8.75381 8.75381 0 01-.34224 1.45186 3.4123 3.4123 0 01-.72953 1.31828 10.73351 10.73351 0 00.26814-1.42975l.20238-1.43021A20.15079 20.15079 0 01399.08527 135.6226zM394.44869 145.48622a7.14568 7.14568 0 01-2.15053-.07577 3.71815 3.71815 0 01-2.0937-1.10916l-.02369-.02625a.61875.61875 0 11.91806-.8298.63524.63524 0 01.10727.16536 2.79444 2.79444 0 001.29185 1.22547A6.84752 6.84752 0 00394.44869 145.48622zM314.41711 300.461c.02021 5.83923.02228 11.67776-.051 17.51468-.06259 5.83692-.1026 11.67453-.2348 17.50984l-.34736 17.50707q-.21108 8.75262-.58775 17.50109l-.23-.491a45.94087 45.94087 0 008.15578 5.03752 35.57044 35.57044 0 009.10945 3.0654 23.53121 23.53121 0 009.55578-.13335 20.79906 20.79906 0 008.51736-4.22568.32755.32755 0 01.24764-.073l.0171.00207a84.76667 84.76667 0 0010.38636.588 76.55 76.55 0 0010.34669-.71856 41.41986 41.41986 0 009.92057-2.58314 18.97968 18.97968 0 008.03066-5.816l-.16925.60433-1.91138-16.42094-1.81414-16.43315-1.82743-16.43154c-.62529-5.47557-1.23762-10.95252-1.91429-16.42509a.0848.0848 0 01.16735-.02695c1.05771 5.41569 1.94428 10.8627 2.77794 16.315.86086 5.44954 1.593 10.91612 2.33434 16.3811.75383 5.46359 1.41878 10.93777 2.08 16.41242q.95428 8.21681 1.78626 16.4472l.00136.01382a.8299.8299 0 01-.17072.591 20.57852 20.57852 0 01-8.78523 6.22637 41.38469 41.38469 0 01-10.33169 2.468 70.26034 70.26034 0 01-10.53454.403 88.79857 88.79857 0 01-10.47552-.92054l.26439-.07093a22.08971 22.08971 0 01-8.82309 4.22384 25.84474 25.84474 0 01-9.77242.16076 39.82419 39.82419 0 01-9.37185-2.8443 46.38644 46.38644 0 01-8.55162-4.86456.55771.55771 0 01-.23048-.45325l.00035-.038q.0721-8.75607.28391-17.50869l.52429-17.5027c.1584-5.83462.40886-11.66693.63686-17.49993.2173-5.83324.5099-11.6644.8207-17.49533a.08479.08479 0 01.16945.00414z"/><path d="M355.4718,318.43055c1.35269-.4544,2.68084-.94335,4.00373-1.42745,1.318-.49724,2.62773-1.00714,3.89347-1.60271a27.78,27.78,0,0,0,3.68533-1.97144,14.52106,14.52106,0,0,0,3.19465-2.70911,9.82647,9.82647,0,0,1-2.81159,3.24826,18.42578,18.42578,0,0,1-3.71611,2.20244,26.51987,26.51987,0,0,1-4.0425,1.45946A24.11128,24.11128,0,0,1,355.4718,318.43055Z"/><path d="M348.51786,374.01279c.27243-4.80836.74718-9.60176,1.29436-14.38663.54511-4.78534,1.25138-9.55156,2.0223-14.30787.82914-4.74573,1.72812-9.485,2.90732-14.16209a81.49943,81.49943,0,0,1,4.49671-13.72772L358.0744,320.843l-.99168,3.46452c-.61627,2.32081-1.22118,4.64485-1.70629,6.9979-.52246,2.34361-.99142,4.69966-1.46418,7.05433-.42452,2.3648-.87057,4.72522-1.243,7.09946-.83873,4.73237-1.53092,9.4903-2.21343,14.2503q-.52342,3.569-.98687,7.14714Z"/><path d="M356.91845 374.71661l.67437-12.69479c.20809-4.23006.44173-8.45805.549-12.689q.26254-6.34268.19029-12.687c-.023-2.11331-.08962-4.22707-.26667-6.33093a23.02822 23.02822 0 00-1.147-6.20795 21.36105 21.36105 0 011.56017 6.16419c.26249 2.11169.40263 4.234.50515 6.3558.188 4.246.11316 8.49329.00411 12.73441-.17846 4.23973-.39978 8.47625-.74752 12.70308C357.89268 366.291 357.48467 370.5128 356.91845 374.71661zM313.34353 330.24626a79.19248 79.19248 0 018.22763-.573.63331.63331 0 01.64838.61792l.00011.00322.00052.02787c.02649 1.392.05919 2.78419-.00242 4.17617-.05792 1.392-.17388 2.78419-.2637 4.17617a58.16182 58.16182 0 00-.00438 8.35234c.07267 1.392.18765 2.78419.24638 4.17617.05953 1.392.086 2.78419.12027 4.17617.09524 2.78419.08136 5.56815-.0103 8.35234l-.00208.062a.68981.68981 0 01-.60922.66236 18.97436 18.97436 0 01-2.47627.1444 15.174 15.174 0 01-2.46723-.199 8.34869 8.34869 0 01-2.3956-.74228 3.15481 3.15481 0 01-1.67376-1.82911.07639.07639 0 01.054-.09373.07759.07759 0 01.08642.03592 2.96133 2.96133 0 001.78592 1.29618 8.23058 8.23058 0 002.24326.34707 22.91592 22.91592 0 002.31234-.08821c.76549-.07692 1.55314-.175 2.28373-.3199l-.61106.72432c-.09166-2.78419-.1056-5.56815-.01036-8.35234.03426-1.392.0608-2.78419.12028-4.17617.05878-1.392.17376-2.78419.24642-4.17617a58.16037 58.16037 0 00-.00437-8.35234c-.08988-1.392-.20584-2.78419-.26376-4.17617-.06161-1.392-.0289-2.78419-.00236-4.17617l.64883.64877a79.19246 79.19246 0 01-8.22763-.573.07651.07651 0 010-.15177z"/><path d="M313.2308 336.322a18.95081 18.95081 0 014.23962.275 18.74574 18.74574 0 014.1008 1.11055 18.73394 18.73394 0 01-4.23962-.275A18.96368 18.96368 0 01313.2308 336.322zM316.02558 372.22768c-.99884 1.09534-1.94368 2.23536-2.8428 3.40256a33.39735 33.39735 0 01-2.77677 3.51381c-.53108.54007-1.09367 1.038-1.6718 1.521-.602.482-1.22409.8982-1.841 1.31575l-3.69558 2.45738a103.68749 103.68749 0 00-13.76935 10.97141c-2.13006 2.01726-4.15412 4.14346-6.10391 6.33622-1.93124 2.22385-3.74463 4.48939-5.56746 6.85534a80.87637 80.87637 0 01-5.91234 6.71578c-2.07738 2.15522-4.42807 3.96106-6.63863 5.94724.8837-1.19714 1.88289-2.31114 2.852-3.43021.96159-1.13173 1.97869-2.20473 2.95756-3.29778 1.97327-2.18124 3.80963-4.47994 5.5708-6.83138a87.85915 87.85915 0 0111.69917-13.50617 77.23684 77.23684 0 016.85419-5.7676 85.57457 85.57457 0 017.40814-5.00781c1.2664-.77867 2.56309-1.50944 3.83462-2.25541.63484-.3731 1.26111-.754 1.84972-1.15315.58982-.42607 1.16852-.874 1.71061-1.35467a33.0431 33.0431 0 002.9541-3.26277A38.99193 38.99193 0 01316.02558 372.22768zM273.23348 438.73388c1.44155-1.44219 2.92554-2.84062 4.4264-4.22039 1.50287-1.37747 2.99832-2.76646 4.546-4.09487 3.08947-2.66351 6.22442-5.27889 9.45057-7.79085a109.51375 109.51375 0 0110.10631-6.99975 44.565 44.565 0 015.52347-2.86848c.47737-.21373.98923-.37356 1.48681-.555.48341-.17388.93562-.3169 1.401-.49678.92088-.35974 1.83555-.75149 2.73156-1.19391a81.84869 81.84869 0 0019.52385-14.11718 62.91838 62.91838 0 007.89547-9.17131 27.50189 27.50189 0 004.88336-11.01056c-.338 4.09211-2.13463 7.93549-4.2657 11.41544a58.98106 58.98106 0 01-7.66994 9.60752 78.85714 78.85714 0 01-9.19967 8.172 64.6658 64.6658 0 01-10.441 6.59394c-.92722.46407-1.88311.88116-2.85645 1.26738-.48278.19047-1.00091.35859-1.47414.53248-.457.17181-.91835.31759-1.3697.523a42.96243 42.96243 0 00-5.32742 2.72017c-3.45842 2.05849-6.81584 4.33785-10.09208 6.72844-3.30579 2.35329-6.53954 4.81873-9.73177 7.33853C279.56827 433.61045 276.39888 436.1648 273.23348 438.73388zM318.50007 388.66221c-.83579 1.3853-1.711 2.678-2.41046 4.04535a9.38907 9.38907 0 00-.83734 2.09719 4.02988 4.02988 0 00.02262 2.2554 3.02676 3.02676 0 01-.67572-2.35927 6.4 6.4 0 01.737-2.38046A10.43249 10.43249 0 01318.50007 388.66221z"/><path d="M274.01646 439.5822a4.16363 4.16363 0 00-2.79231-.9058c-2.132.05666-6.8015-.4339-8.46179-5.42421a9.23041 9.23041 0 01.83959-7.21646c1.21694-2.2356 2.50931-5.56585.7641-7.509-2.81114-3.09418-8.60326 2.75448-8.60326 2.75448s-3.9526 2.78281-7.25429 2.5a8.6697 8.6697 0 00-7.28257 2.83c-2.42439 2.70726-3.70732 6.96174 1.85836 12.74431 0 0 4.20732 3.783 6.4713 17.84816s7.92409 31.3944 17.76312 26.2719a3.18568 3.18568 0 001.27355-2.43367 2.73557 2.73557 0 00-1.61314-2.05641 3.65159 3.65159 0 00-1.30181-.34915 7.22714 7.22714 0 00-1.40557.05666 7.53245 7.53245 0 01-3.0187-.5 10.252 10.252 0 01-4.57518-3.95278 21.43885 21.43885 0 01-2.47155-5.44309l-.01888-.03754v-.02833c-.74522-3.49975-1.53765-6.99951-2.44328-10.45228-.45279-1.72639-.9339-3.45255-1.481-5.14117a19.48808 19.48808 0 00-2.07531-4.76391 23.529 23.529 0 01-2.264-5.03729c-.58486-1.71695-1.07542-3.46222-1.49049-5.22615a38.06517 38.06517 0 01-.849-5.36755 12.29552 12.29552 0 01.47167-5.36778 13.296 13.296 0 000 5.32057 52.65888 52.65888 0 001.16973 5.2167c.49056 1.71671 1.04709 3.40533 1.698 5.05618a26.6063 26.6063 0 002.3112 4.70726c.21695.32081.50938.80193.74522 1.19806.20756.42445.42451.83947.60375 1.26416.36791.84891.67918 1.7075.97167 2.5753.57542 1.72638 1.07536 3.462 1.547 5.20726.89619 3.49975 1.698 6.99951 2.35835 10.55592a22.46581 22.46581 0 002.16967 5.16005 9.21461 9.21461 0 003.9526 3.76392 6.62377 6.62377 0 002.66967.57554 7.49907 7.49907 0 011.50938.04721 4.134 4.134 0 011.46217.5281 3.10648 3.10648 0 011.65085 2.4811 3.25283 3.25283 0 01-1.55654 2.44311s3.77336-.07531 3.76392-9.34843c-.00944-5.47142.1132-13.754.20757-19.61208-.85848-.36781-1.64141-.79249-2.415-1.20751l-2.28293-1.23583a19.30064 19.30064 0 00-2.264-1.02809 3.88377 3.88377 0 00-2.46211-.18863 2.863 2.863 0 012.67906-.89612 7.46808 7.46808 0 012.70738.85835 10.93182 10.93182 0 012.2546 1.59419 8.51014 8.51014 0 011.78293 2.10364c.07548-4.06563.13208-6.97119.13208-6.97119-.71695-.632-1.31126-1.26416-1.97161-1.82081a15.40661 15.40661 0 00-2.01876-1.50921 16.85451 16.85451 0 00-4.745-2.01865 5.504 5.504 0 012.82058-.20774 7.095 7.095 0 012.67906 1.02833 7.2657 7.2657 0 012.0848 1.962 6.70768 6.70768 0 011.15091 2.56609S277.67657 442.64806 274.01646 439.5822zm-18.90458 2.55642c-1.66967.38668-4.79219-2.05665-3.84884-5.42421 1.0943-3.915.51888-6.42421 2.18855-6.81112 1.66973-.38669 3.39606 2.0472 3.84885 5.4242C257.76267 438.70473 256.78161 441.7517 255.11188 442.13862zm9.32965 14.93292a6.831 6.831 0 012.8017.77361 8.89508 8.89508 0 012.30175 1.68861 7.43215 7.43215 0 011.632 2.28281c-1.62258-.95278-3.047-1.94333-4.57524-2.70727a14.718 14.718 0 00-2.33-.95278 11.66174 11.66174 0 00-2.60363-.3397A4.56117 4.56117 0 01264.44153 457.07154zM359.16148 374.24333c-.82951 1.22869-1.59909 2.49354-2.31949 3.77866a33.37913 33.37913 0 01-2.238 3.8793c-.4472.61124-.93162 1.18563-1.43366 1.74735-.52568.56425-1.08092 1.06609-1.63075 1.56886l-3.30026 2.96705a103.68186 103.68186 0 00-12.03323 12.85186c-1.81506 2.30469-3.50949 4.702-5.12075 7.154-1.58841 2.48065-3.0542 4.985-4.51473 7.59026a80.93963 80.93963 0 01-4.87622 7.502c-1.743 2.43343-3.807 4.56125-5.70627 6.84659.70082-1.31252 1.52792-2.55941 2.32455-3.80722.78737-1.25932 1.63818-2.4682 2.44823-3.69183 1.63616-2.44426 3.11984-4.98478 4.52149-7.56676a87.858 87.858 0 019.61742-15.05983 77.24385 77.24385 0 015.94563-6.70011 85.56965 85.56965 0 016.60384-6.029c1.14011-.95416 2.31713-1.86526 3.467-2.78764.57407-.46108 1.1385-.92883 1.663-1.40925.52185-.50691 1.02947-1.03409 1.49614-1.58821a33.05223 33.05223 0 002.44987-3.65659A38.964 38.964 0 01359.16148 374.24333zM326.46365 446.2509a210.18127 210.18127 0 0116.95828-19.68878 92.61858 92.61858 0 019.72405-8.734c.87889-.65983 1.77766-1.29939 2.71884-1.89313.91706-.59718 2.0029-1.11837 2.87733-1.58912a37.43 37.43 0 005.21413-3.59441 76.7897 76.7897 0 009.21194-8.9113 79.01668 79.01668 0 007.69853-10.28048 47.9566 47.9566 0 005.35281-11.63308 22.20539 22.20539 0 00.31267-12.69249c1.57819 4.07023 1.38588 8.65244.37137 12.87306a45.60065 45.60065 0 01-5.04734 12.04417 75.61874 75.61874 0 01-16.86563 19.87879 39.01447 39.01447 0 01-5.43607 3.784c-1.02936.55274-1.88876.98319-2.79364 1.55412-.89212.5532-1.76079 1.16121-2.6156 1.79318a109.67878 109.67878 0 00-9.69521 8.44446q-4.66377 4.46889-9.12635 9.1727Q330.84839 441.46337 326.46365 446.2509zM363.9925 390.14562c-.62612 1.4917-1.30464 2.8975-1.7985 4.3519a9.38821 9.38821 0 00-.52438 2.19644 4.03059 4.03059 0 00.34934 2.22846 3.02756 3.02756 0 01-1.01067-2.23675 6.40091 6.40091 0 01.38418-2.462A10.4302 10.4302 0 01363.9925 390.14562z"/><path d="M329.466 481.57974c-.5-3.38667-1.11314-7.877-1.68856-12.18811-1.74522-.71695-3.3017-1.49033-4.91483-2.01865a14.915 14.915 0 00-2.44322-.60387 11.23271 11.23271 0 00-2.632.03777 4.64161 4.64161 0 012.632-1.1414 7.245 7.245 0 012.88662.35835 8.72678 8.72678 0 012.5187 1.33971 7.54043 7.54043 0 011.95273 2.02809c-.33965-2.56586-.6698-5.0753-.94334-7.2448a24.81112 24.81112 0 01-2.56592-.84891l-2.43378-.88692a20.04141 20.04141 0 00-2.39612-.68862 3.87452 3.87452 0 00-2.47155.16974 2.923 2.923 0 012.52815-1.27337 7.50412 7.50412 0 012.80175.46223 10.85966 10.85966 0 012.47155 1.245 8.9915 8.9915 0 012.06592 1.82081c-.52827-4.02808-.88675-6.91476-.88675-6.91476-.79243-.51888-1.481-1.06586-2.21688-1.51865a16.77167 16.77167 0 00-2.20739-1.2075 17.16327 17.16327 0 00-4.99031-1.30193 5.34633 5.34633 0 012.7546-.61308 7.33345 7.33345 0 015.1506 2.27337 6.67966 6.67966 0 011.50938 2.36779s5.48081-5.75447 1.415-8.25423a4.13255 4.13255 0 00-2.89606-.49055c-2.10363.35859-6.78262.55665-9.15986-4.14117a9.2326 9.2326 0 01-.2075-7.26367c.8773-2.38668 1.66967-5.877-.33959-7.53752-3.22627-2.66005-8.11277 3.97166-8.11277 3.97166s-3.5092 3.33-6.82033 3.52809a8.672 8.672 0 00-6.79206 3.8489c-1.99988 3.0373-2.65079 7.424 3.68843 12.34818 0 0 4.70732 3.132 8.99007 16.716 4.28274 13.59345 12.39551 29.91329 21.38551 23.41378a3.15284 3.15284 0 00.90563-2.58475 2.72441 2.72441 0 00-1.88668-1.80169 3.58 3.58 0 00-1.33953-.16053 7.27 7.27 0 00-1.38674.26416 7.63108 7.63108 0 01-3.06586-.05665 10.26617 10.26617 0 01-5.094-3.245 21.42327 21.42327 0 01-3.23571-5.03729l-.01883-.02856-.00944-.02809c-1.24522-3.34891-2.53759-6.69782-3.93372-9.99006-.69812-1.64141-1.42445-3.27337-2.20744-4.86756a19.89188 19.89188 0 00-2.74509-4.415 23.50872 23.50872 0 01-2.97155-4.6506 54.21426 54.21426 0 01-2.22627-4.962 37.0169 37.0169 0 01-1.62258-5.17893 12.39809 12.39809 0 01-.31126-5.38643 13.34517 13.34517 0 00.76411 5.26368 53.29642 53.29642 0 001.92439 4.99031c.72639 1.62275 1.52821 3.21694 2.41495 4.76391a26.575 26.575 0 002.9621 4.31114c.26411.29249.62258.72639.915 1.08475.25472.38691.53771.7736.783 1.17.48111.78282.915 1.58475 1.33008 2.39589.8207 1.62252 1.566 3.27337 2.28293 4.93365 1.39612 3.33 2.69794 6.68837 3.86767 10.10338a22.557 22.557 0 002.88662 4.792 9.308 9.308 0 004.462 3.15084 6.80361 6.80361 0 002.72627.17918 7.28007 7.28007 0 011.49994-.16974 4.18625 4.18625 0 011.51876.30194 3.09733 3.09733 0 011.99044 2.22615 3.20165 3.20165 0 01-1.17918 2.632S330.815 490.74876 329.466 481.57974zM309.02382 452.2512c-1.59425.61308-5.03746-1.3397-4.59406-4.81113.51882-4.03752-.41508-6.43365 1.17917-7.05617s3.66017 1.52809 4.60351 4.80169C311.14634 448.46839 310.61807 451.62868 309.02382 452.2512zM252.351 172.70837a119.6157 119.6157 0 002.311 13.30465 75.44887 75.44887 0 004.10161 12.71783 43.69369 43.69369 0 003.00977 5.91522 36.42644 36.42644 0 003.868 5.36341 31.99522 31.99522 0 004.8743 4.48708 33.06775 33.06775 0 005.85275 3.29617 25.03318 25.03318 0 01-6.35788-2.51957 27.92223 27.92223 0 01-5.44528-4.25908 37.28794 37.28794 0 01-7.533-11.53635 58.32548 58.32548 0 01-3.80762-13.17314A60.99537 60.99537 0 01252.351 172.70837zM247.08445 202.98118a98.38215 98.38215 0 005.09066 11.93385c.99574 1.90672 2.02222 3.79225 3.1752 5.59533a47.98621 47.98621 0 003.70133 5.21532 36.54057 36.54057 0 009.3885 8.4751 30.16055 30.16055 0 005.77992 2.65936 33.9016 33.9016 0 006.31941 1.36388 24.98846 24.98846 0 01-6.56158-.46959 26.31616 26.31616 0 01-6.25838-2.26969 31.1796 31.1796 0 01-5.52037-3.76691 38.66172 38.66172 0 01-4.61669-4.81021 49.72018 49.72018 0 01-6.73414-11.36776A53.1609 53.1609 0 01247.08445 202.98118zM209.79428 391.7481a119.62649 119.62649 0 00-3.35178 13.08125 75.44861 75.44861 0 00-1.478 13.2807 43.69368 43.69368 0 00.31759 6.62941 36.42171 36.42171 0 001.32663 6.4781 31.98814 31.98814 0 002.6038 6.0921 33.05764 33.05764 0 003.985 5.40739 25.03243 25.03243 0 01-4.76426-4.90647 27.92624 27.92624 0 01-3.21815-6.11836 37.28717 37.28717 0 01-2.13593-13.61142 58.32526 58.32526 0 011.93291-13.57526A60.99048 60.99048 0 01209.79428 391.7481zM192.56985 417.19389a98.36906 98.36906 0 00-.25437 12.97185c.12563 2.14739.288 4.28787.59966 6.40555a48.003 48.003 0 001.23543 6.27474 36.5422 36.5422 0 005.08416 11.581 30.16218 30.16218 0 004.17974 4.79685 33.9 33.9 0 005.20334 3.83693 24.9919 24.9919 0 01-5.79109-3.12067 26.31406 26.31406 0 01-4.77595-4.63794 31.17611 31.17611 0 01-3.48858-5.70012 38.66443 38.66443 0 01-2.23635-6.28118 49.7208 49.7208 0 01-1.47679-13.12961A53.16373 53.16373 0 01192.56985 417.19389zM432.65185 274.35977a60.99573 60.99573 0 01-.95336 13.59092 58.3248 58.3248 0 01-3.88477 13.15035 37.28846 37.28846 0 01-7.6005 11.49212 27.92778 27.92778 0 01-5.47016 4.22707 25.02328 25.02328 0 01-6.37256 2.482 33.05127 33.05127 0 005.872-3.26162 31.98772 31.98772 0 004.90052-4.45853 36.41937 36.41937 0 003.89934-5.3406 43.68579 43.68579 0 003.04443-5.89749 75.44424 75.44424 0 004.17609-12.69342A119.624 119.624 0 00432.65185 274.35977zM437.74079 304.66275a53.1644 53.1644 0 01-3.83742 12.53657 49.72415 49.72415 0 01-6.80073 11.32792 38.68053 38.68053 0 01-4.64479 4.78326 31.17541 31.17541 0 01-5.54238 3.73421 26.30991 26.30991 0 01-6.27154 2.23306 24.98989 24.98989 0 01-6.56426.43114 33.89155 33.89155 0 006.3273-1.3268 30.176 30.176 0 005.79544-2.62528 36.54767 36.54767 0 009.438-8.42005 48.00465 48.00465 0 003.73185-5.19344c1.16354-1.7964 2.20105-3.67572 3.20793-5.57668A98.37318 98.37318 0 00437.74079 304.66275zM252.84509 95.99944a1.5106 1.5106 0 00-.42559-1.11471l-5.72641-5.38494c-.439-.36894-.99832-.1885-1.28277.39843a1.72941 1.72941 0 00.22526 1.831l4.53335 4.27024-4.53335 4.2704a1.67236 1.67236 0 000 2.22933l4.53335 4.27041-4.53335 4.27024a1.67257 1.67257 0 000 2.22949l5.72641 5.38495c.439.40928 1.02885.24232 1.319-.36886a1.6871 1.6871 0 00-.2615-1.86047l-4.53346-4.2704 4.53346-4.27025a1.67261 1.67261 0 000-2.22941l-4.53346-4.2704 4.53346-4.27024a1.51041 1.51041 0 00.42559-1.11479zm0 0M218.72209 329.32769a1.67784 1.67784 0 00.34219 1.08248l3.644 4.14652-3.644 4.14667a1.94177 1.94177 0 00-.19184 1.7883c.2271.58038.68892.75559 1.04184.37652l4.603-5.22908a1.8829 1.8829 0 000-2.16474l-3.644-4.14667 3.644-4.14652a1.883 1.883 0 000-2.16481l-3.644-4.14668 3.644-4.14651a1.942 1.942 0 00.19183-1.78838c-.22709-.58038-.68892-.75559-1.04183-.37652l-4.603 5.22908a1.8829 1.8829 0 000 2.16474l3.644 4.14667-3.644 4.14652a1.64364 1.64364 0 00-.34219 1.08241zm0 0M197.02443 172.6603a1.67784 1.67784 0 00.34219 1.08249l3.644 4.14651-3.644 4.14668a1.94175 1.94175 0 00-.19184 1.78829c.2271.58038.68892.75559 1.04184.37652l4.603-5.22908a1.8829 1.8829 0 000-2.16474l-3.644-4.14667 3.644-4.14652a1.883 1.883 0 000-2.16481l-3.644-4.14668 3.644-4.14651a1.942 1.942 0 00.19183-1.78838c-.22709-.58037-.68892-.75559-1.04183-.37652l-4.603 5.22909a1.88288 1.88288 0 000 2.16473l3.644 4.14668-3.644 4.14651a1.64366 1.64366 0 00-.34219 1.08241zm0 0M458.9536 378.90732a1.58187 1.58187 0 00.40626 1.11479l4.32637 4.27024-4.32637 4.27041a1.77719 1.77719 0 00-.22776 1.84165c.26962.5977.81792.77814 1.23692.38776l5.46489-5.38511a1.73226 1.73226 0 000-2.22933l-4.32637-4.27041 4.32637-4.27024a1.73237 1.73237 0 000-2.22941l-4.32637-4.27041 4.32637-4.27024a1.77736 1.77736 0 00.22776-1.84174c-.26962-.59769-.81792-.77814-1.23692-.38775l-5.46489 5.38511a1.7323 1.7323 0 000 2.22933l4.32637 4.2704-4.32637 4.27025a1.5501 1.5501 0 00-.40626 1.1147zm0 0M473.97608 210.64063l-3.39876 3.07a4.76184 4.76184 0 000 6.55035l.97885.89369a1.58864 1.58864 0 010 2.17634l-.97885.89376a4.76176 4.76176 0 000 6.55028l.97885.8936a1.58885 1.58885 0 010 2.1765l-.97885.89369a4.76164 4.76164 0 000 6.55019l.97885.89369a1.58885 1.58885 0 010 2.1765l-3.40664 3.08053a1.618 1.618 0 00-.24271 1.798.82681.82681 0 001.31871.37854l3.39888-3.07011a4.76206 4.76206 0 000-6.55027l-.97892-.89377a1.44348 1.44348 0 01-.42337-1.08813 1.42 1.42 0 01.43114-1.08821l.97885-.89376a4.7826 4.7826 0 000-6.55027l-.97885-.89361a1.58891 1.58891 0 010-2.17642l.97885-.89376a4.78251 4.78251 0 000-6.5502l-.97885-.89368a1.589 1.589 0 010-2.1765l3.39882-3.08054a1.61006 1.61006 0 00.27389-1.81633.82762.82762 0 00-1.34989-.36008zm0 0M433.91913 95.05774l-3.59077-3.15562a1.59425 1.59425 0 010-2.22932l1.03185-.91553a4.77872 4.77872 0 000-6.70976l-1.03185-.91536a1.59436 1.59436 0 010-2.22941l1.03185-.91553a4.77863 4.77863 0 000-6.70968l-1.03185-.91544a1.59446 1.59446 0 010-2.22949l1.03185-.91537a4.77871 4.77871 0 000-6.70975l-3.58265-3.14486a.882.882 0 00-1.39.38767 1.62121 1.62121 0 00.2559 1.84166l3.59077 3.1557a1.59419 1.59419 0 010 2.22941l-1.03178.91536a4.7785 4.7785 0 000 6.70984l1.03178.91545a1.59409 1.59409 0 010 2.22933l-1.03178.91552a4.7784 4.7784 0 000 6.70976l1.03178.91536a1.5943 1.5943 0 010 2.2295l-1.03178.91544a4.7783 4.7783 0 000 6.70968l3.58259 3.14494a.88478.88478 0 001.41457-.36886 1.59983 1.59983 0 00-.28046-1.86064zm0 0M366.64205 75.91539a5.38867 5.38867 0 11-5.37651-5.02587 5.2146 5.2146 0 015.37651 5.02587zm0 0M429.17944 415.16333a5.40582 5.40582 0 11-5.39352-5.04177 5.23114 5.23114 0 015.39352 5.04177zm0 0M490.3962 159.28855a4.33037 4.33037 0 11-4.32054-4.03877 4.18832 4.18832 0 014.32054 4.03877zm0 0M294.48619 339.40956a4.33037 4.33037 0 11-4.32054-4.03877 4.18831 4.18831 0 014.32054 4.03877zm0 0M341.08353 155.376c3.642 0 3.648-5.66 0-5.66-3.642 0-3.648 5.66 0 5.66zM239.15492 252.64822c3.642 0 3.648-5.66005 0-5.66005-3.642 0-3.648 5.66005 0 5.66005zM458.9536 325.01591c3.642 0 3.648-5.66005 0-5.66005-3.642 0-3.648 5.66005 0 5.66005zM414.31 232.96219c3.642 0 3.648-5.66 0-5.66-3.642 0-3.648 5.66 0 5.66z"/></svg>